<svg xmlns="http://www.w3.org/2000/svg" width="512" height="576" viewBox="0 0 128 144"><defs>
 <linearGradient id="skin" x1="0" y1="0" x2="1" y2=".7"><stop stop-color="#ffffff"/><stop offset=".48" stop-color="#f3f3f3"/><stop offset="1" stop-color="#b9b9b9"/></linearGradient>
 <linearGradient id="hair" x1="0" y1="0" x2=".9" y2="1"><stop stop-color="#ffffff"/><stop offset=".33" stop-color="#dbdbdb"/><stop offset=".76" stop-color="#909090"/><stop offset="1" stop-color="#666666"/></linearGradient>
 <linearGradient id="cloth" x1="0" y1="0" x2="1" y2=".7"><stop stop-color="#eeeeee"/><stop offset=".4" stop-color="#bbbbbb"/><stop offset="1" stop-color="#717171"/></linearGradient>
 <linearGradient id="navy" x1="0" y1="0" x2="1" y2=".7"><stop stop-color="#50647d"/><stop offset=".5" stop-color="#344157"/><stop offset="1" stop-color="#1d293d"/></linearGradient>
 <linearGradient id="white" x1="0" y1="0" x2="1" y2="1"><stop stop-color="#faf8f3"/><stop offset=".65" stop-color="#dedfe4"/><stop offset="1" stop-color="#a9b6c8"/></linearGradient>
 <linearGradient id="denim" x1="0" y1="0" x2="1" y2=".6"><stop stop-color="#657896"/><stop offset=".5" stop-color="#3b526e"/><stop offset="1" stop-color="#23364e"/></linearGradient>
 <radialGradient id="iris"><stop stop-color="#d8d8d8"/><stop offset=".65" stop-color="#fafafa"/><stop offset="1" stop-color="#707070"/></radialGradient>
 <linearGradient id="leather" x1="0" y1="0" x2="1" y2=".8"><stop stop-color="#bd9870"/><stop offset=".4" stop-color="#96714e"/><stop offset="1" stop-color="#594636"/></linearGradient>
 </defs><g transform="translate(0 0)"><g transform="translate(0 0)"><g transform="translate(2.24 2.66) scale(.86)"><defs><clipPath id="scalp_169"><rect x="6" y="7" width="22" height="18"/></clipPath></defs><g clip-path="url(#scalp_169)"><image href="../components/head_heart_0.png" x="8.2" y="3.5" width="15.6" height="18" preserveAspectRatio="none"/></g></g><path d="M 10.8 20 Q 16 18.5 21.2 20 L 23.2 32 Q 16 34 8.8 32 Z" fill="url(#skin)"/><path d="M 8.3 22 Q 7.300000000000001 27 8.3 30 Q 9.3 31 17 25 L 18.4 26.5 Q 11.3 34 10.3 30 L 10.3 22 Z" fill="url(#skin)" stroke="#aeaeae" stroke-width="0.18" stroke-linecap="round" stroke-linejoin="round"/><path d="M 22.4 22 Q 21.4 27 22.4 30 Q 23.4 31 17 25 L 18.4 26.5 Q 25.4 34 24.4 30 L 24.4 22 Z" fill="url(#skin)" stroke="#aeaeae" stroke-width="0.18" stroke-linecap="round" stroke-linejoin="round"/><path d="M 10.8 31 L 21.2 31 L 20.2 43.8 L 17.5 43.8 L 16 35 L 14.5 43.8 L 11.8 43.8 Z" fill="url(#skin)"/></g></g><g transform="translate(32 0)"><g transform="translate(0 -0.18)"><g transform="translate(2.24 2.66) scale(.86)"><defs><clipPath id="scalp_170"><rect x="6" y="7" width="22" height="18"/></clipPath></defs><g clip-path="url(#scalp_170)"><image href="../components/head_heart_0.png" x="8.2" y="3.5" width="15.6" height="18" preserveAspectRatio="none"/></g></g><path d="M 10.8 20 Q 16 18.5 21.2 20 L 23.2 32 Q 16 34 8.8 32 Z" fill="url(#skin)"/><path d="M 8.3 22 Q 7.300000000000001 27 8.3 30 Q 9.3 31 17 25 L 18.4 26.5 Q 11.3 34 10.3 30 L 10.3 22 Z" fill="url(#skin)" stroke="#aeaeae" stroke-width="0.18" stroke-linecap="round" stroke-linejoin="round"/><path d="M 22.4 22 Q 21.4 27 22.4 30 Q 23.4 31 17 25 L 18.4 26.5 Q 25.4 34 24.4 30 L 24.4 22 Z" fill="url(#skin)" stroke="#aeaeae" stroke-width="0.18" stroke-linecap="round" stroke-linejoin="round"/><path d="M 10.8 31 L 21.2 31 L 20.2 43.8 L 17.5 43.8 L 16 35 L 14.5 43.8 L 11.8 43.8 Z" fill="url(#skin)"/></g></g><g transform="translate(64 0)"><g transform="translate(0 0)"><g transform="translate(2.24 2.66) scale(.86)"><defs><clipPath id="scalp_171"><rect x="6" y="7" width="22" height="18"/></clipPath></defs><g clip-path="url(#scalp_171)"><image href="../components/head_heart_0.png" x="8.2" y="3.5" width="15.6" height="18" preserveAspectRatio="none"/></g></g><path d="M 10.8 20 Q 16 18.5 21.2 20 L 23.2 32 Q 16 34 8.8 32 Z" fill="url(#skin)"/><path d="M 8.3 22 Q 7.300000000000001 27 8.3 30 Q 9.3 31 17 25 L 18.4 26.5 Q 11.3 34 10.3 30 L 10.3 22 Z" fill="url(#skin)" stroke="#aeaeae" stroke-width="0.18" stroke-linecap="round" stroke-linejoin="round"/><path d="M 22.4 22 Q 21.4 27 22.4 30 Q 23.4 31 17 25 L 18.4 26.5 Q 25.4 34 24.4 30 L 24.4 22 Z" fill="url(#skin)" stroke="#aeaeae" stroke-width="0.18" stroke-linecap="round" stroke-linejoin="round"/><path d="M 10.8 31 L 21.2 31 L 20.2 43.8 L 17.5 43.8 L 16 35 L 14.5 43.8 L 11.8 43.8 Z" fill="url(#skin)"/></g></g><g transform="translate(96 0)"><g transform="translate(0 -0.18)"><g transform="translate(2.24 2.66) scale(.86)"><defs><clipPath id="scalp_172"><rect x="6" y="7" width="22" height="18"/></clipPath></defs><g clip-path="url(#scalp_172)"><image href="../components/head_heart_0.png" x="8.2" y="3.5" width="15.6" height="18" preserveAspectRatio="none"/></g></g><path d="M 10.8 20 Q 16 18.5 21.2 20 L 23.2 32 Q 16 34 8.8 32 Z" fill="url(#skin)"/><path d="M 8.3 22 Q 7.300000000000001 27 8.3 30 Q 9.3 31 17 25 L 18.4 26.5 Q 11.3 34 10.3 30 L 10.3 22 Z" fill="url(#skin)" stroke="#aeaeae" stroke-width="0.18" stroke-linecap="round" stroke-linejoin="round"/><path d="M 22.4 22 Q 21.4 27 22.4 30 Q 23.4 31 17 25 L 18.4 26.5 Q 25.4 34 24.4 30 L 24.4 22 Z" fill="url(#skin)" stroke="#aeaeae" stroke-width="0.18" stroke-linecap="round" stroke-linejoin="round"/><path d="M 10.8 31 L 21.2 31 L 20.2 43.8 L 17.5 43.8 L 16 35 L 14.5 43.8 L 11.8 43.8 Z" fill="url(#skin)"/></g></g><g transform="translate(0 48)"><g transform="translate(0 0)"><g transform="translate(2.24 2.66) scale(.86)"><defs><clipPath id="scalp_173"><rect x="6" y="6" width="22" height="18"/></clipPath></defs><g clip-path="url(#scalp_173)"><image href="../components/head_heart_1.png" x="10.5" y="3.5" width="12.5" height="18" preserveAspectRatio="none"/></g></g><path d="M 14 20 Q 16 18.5 19 20 L 21 32 Q 16 34 12 32 Z" fill="url(#skin)"/><path d="M 11.5 22 Q 10.5 27 11.5 30 Q 12.5 31 17 25 L 18.4 26.5 Q 14.5 34 13.5 30 L 13.5 22 Z" fill="url(#skin)" stroke="#aeaeae" stroke-width="0.18" stroke-linecap="round" stroke-linejoin="round"/><path d="M 20.2 22 Q 19.2 27 20.2 30 Q 21.2 31 17 25 L 18.4 26.5 Q 23.2 34 22.2 30 L 22.2 22 Z" fill="url(#skin)" stroke="#aeaeae" stroke-width="0.18" stroke-linecap="round" stroke-linejoin="round"/><path d="M 14 31 L 19 31 L 18 43.8 L 15.3 43.8 L 16 35 L 17.7 43.8 L 15 43.8 Z" fill="url(#skin)"/></g></g><g transform="translate(32 48)"><g transform="translate(0 -0.18)"><g transform="translate(2.24 2.66) scale(.86)"><defs><clipPath id="scalp_174"><rect x="6" y="6" width="22" height="18"/></clipPath></defs><g clip-path="url(#scalp_174)"><image href="../components/head_heart_1.png" x="10.5" y="3.5" width="12.5" height="18" preserveAspectRatio="none"/></g></g><path d="M 14 20 Q 16 18.5 19 20 L 21 32 Q 16 34 12 32 Z" fill="url(#skin)"/><path d="M 11.5 22 Q 10.5 27 11.5 30 Q 12.5 31 17 25 L 18.4 26.5 Q 14.5 34 13.5 30 L 13.5 22 Z" fill="url(#skin)" stroke="#aeaeae" stroke-width="0.18" stroke-linecap="round" stroke-linejoin="round"/><path d="M 20.2 22 Q 19.2 27 20.2 30 Q 21.2 31 17 25 L 18.4 26.5 Q 23.2 34 22.2 30 L 22.2 22 Z" fill="url(#skin)" stroke="#aeaeae" stroke-width="0.18" stroke-linecap="round" stroke-linejoin="round"/><path d="M 14 31 L 19 31 L 18 43.8 L 15.3 43.8 L 16 35 L 17.7 43.8 L 15 43.8 Z" fill="url(#skin)"/></g></g><g transform="translate(64 48)"><g transform="translate(0 0)"><g transform="translate(2.24 2.66) scale(.86)"><defs><clipPath id="scalp_175"><rect x="6" y="6" width="22" height="18"/></clipPath></defs><g clip-path="url(#scalp_175)"><image href="../components/head_heart_1.png" x="10.5" y="3.5" width="12.5" height="18" preserveAspectRatio="none"/></g></g><path d="M 14 20 Q 16 18.5 19 20 L 21 32 Q 16 34 12 32 Z" fill="url(#skin)"/><path d="M 11.5 22 Q 10.5 27 11.5 30 Q 12.5 31 17 25 L 18.4 26.5 Q 14.5 34 13.5 30 L 13.5 22 Z" fill="url(#skin)" stroke="#aeaeae" stroke-width="0.18" stroke-linecap="round" stroke-linejoin="round"/><path d="M 20.2 22 Q 19.2 27 20.2 30 Q 21.2 31 17 25 L 18.4 26.5 Q 23.2 34 22.2 30 L 22.2 22 Z" fill="url(#skin)" stroke="#aeaeae" stroke-width="0.18" stroke-linecap="round" stroke-linejoin="round"/><path d="M 14 31 L 19 31 L 18 43.8 L 15.3 43.8 L 16 35 L 17.7 43.8 L 15 43.8 Z" fill="url(#skin)"/></g></g><g transform="translate(96 48)"><g transform="translate(0 -0.18)"><g transform="translate(2.24 2.66) scale(.86)"><defs><clipPath id="scalp_176"><rect x="6" y="6" width="22" height="18"/></clipPath></defs><g clip-path="url(#scalp_176)"><image href="../components/head_heart_1.png" x="10.5" y="3.5" width="12.5" height="18" preserveAspectRatio="none"/></g></g><path d="M 14 20 Q 16 18.5 19 20 L 21 32 Q 16 34 12 32 Z" fill="url(#skin)"/><path d="M 11.5 22 Q 10.5 27 11.5 30 Q 12.5 31 17 25 L 18.4 26.5 Q 14.5 34 13.5 30 L 13.5 22 Z" fill="url(#skin)" stroke="#aeaeae" stroke-width="0.18" stroke-linecap="round" stroke-linejoin="round"/><path d="M 20.2 22 Q 19.2 27 20.2 30 Q 21.2 31 17 25 L 18.4 26.5 Q 23.2 34 22.2 30 L 22.2 22 Z" fill="url(#skin)" stroke="#aeaeae" stroke-width="0.18" stroke-linecap="round" stroke-linejoin="round"/><path d="M 14 31 L 19 31 L 18 43.8 L 15.3 43.8 L 16 35 L 17.7 43.8 L 15 43.8 Z" fill="url(#skin)"/></g></g><g transform="translate(0 96)"><g transform="translate(0 0)"><g transform="translate(2.24 2.66) scale(.86)"><path d="M 13.5 16 L 18.5 16 L 18.7 21 Q 16 23 13.3 21 Z" fill="url(#skin)" stroke="#999" stroke-width="0.18" stroke-linecap="round" stroke-linejoin="round"/></g><path d="M 10.8 20 Q 16 18.5 21.2 20 L 23.2 32 Q 16 34 8.8 32 Z" fill="url(#skin)"/><path d="M 8.3 22 Q 7.300000000000001 27 8.3 30 Q 9.3 31 17 25 L 18.4 26.5 Q 11.3 34 10.3 30 L 10.3 22 Z" fill="url(#skin)" stroke="#aeaeae" stroke-width="0.18" stroke-linecap="round" stroke-linejoin="round"/><path d="M 22.4 22 Q 21.4 27 22.4 30 Q 23.4 31 17 25 L 18.4 26.5 Q 25.4 34 24.4 30 L 24.4 22 Z" fill="url(#skin)" stroke="#aeaeae" stroke-width="0.18" stroke-linecap="round" stroke-linejoin="round"/><path d="M 10.8 31 L 21.2 31 L 20.2 43.8 L 17.5 43.8 L 16 35 L 14.5 43.8 L 11.8 43.8 Z" fill="url(#skin)"/></g></g><g transform="translate(32 96)"><g transform="translate(0 -0.18)"><g transform="translate(2.24 2.66) scale(.86)"><path d="M 13.5 16 L 18.5 16 L 18.7 21 Q 16 23 13.3 21 Z" fill="url(#skin)" stroke="#999" stroke-width="0.18" stroke-linecap="round" stroke-linejoin="round"/></g><path d="M 10.8 20 Q 16 18.5 21.2 20 L 23.2 32 Q 16 34 8.8 32 Z" fill="url(#skin)"/><path d="M 8.3 22 Q 7.300000000000001 27 8.3 30 Q 9.3 31 17 25 L 18.4 26.5 Q 11.3 34 10.3 30 L 10.3 22 Z" fill="url(#skin)" stroke="#aeaeae" stroke-width="0.18" stroke-linecap="round" stroke-linejoin="round"/><path d="M 22.4 22 Q 21.4 27 22.4 30 Q 23.4 31 17 25 L 18.4 26.5 Q 25.4 34 24.4 30 L 24.4 22 Z" fill="url(#skin)" stroke="#aeaeae" stroke-width="0.18" stroke-linecap="round" stroke-linejoin="round"/><path d="M 10.8 31 L 21.2 31 L 20.2 43.8 L 17.5 43.8 L 16 35 L 14.5 43.8 L 11.8 43.8 Z" fill="url(#skin)"/></g></g><g transform="translate(64 96)"><g transform="translate(0 0)"><g transform="translate(2.24 2.66) scale(.86)"><path d="M 13.5 16 L 18.5 16 L 18.7 21 Q 16 23 13.3 21 Z" fill="url(#skin)" stroke="#999" stroke-width="0.18" stroke-linecap="round" stroke-linejoin="round"/></g><path d="M 10.8 20 Q 16 18.5 21.2 20 L 23.2 32 Q 16 34 8.8 32 Z" fill="url(#skin)"/><path d="M 8.3 22 Q 7.300000000000001 27 8.3 30 Q 9.3 31 17 25 L 18.4 26.5 Q 11.3 34 10.3 30 L 10.3 22 Z" fill="url(#skin)" stroke="#aeaeae" stroke-width="0.18" stroke-linecap="round" stroke-linejoin="round"/><path d="M 22.4 22 Q 21.4 27 22.4 30 Q 23.4 31 17 25 L 18.4 26.5 Q 25.4 34 24.4 30 L 24.4 22 Z" fill="url(#skin)" stroke="#aeaeae" stroke-width="0.18" stroke-linecap="round" stroke-linejoin="round"/><path d="M 10.8 31 L 21.2 31 L 20.2 43.8 L 17.5 43.8 L 16 35 L 14.5 43.8 L 11.8 43.8 Z" fill="url(#skin)"/></g></g><g transform="translate(96 96)"><g transform="translate(0 -0.18)"><g transform="translate(2.24 2.66) scale(.86)"><path d="M 13.5 16 L 18.5 16 L 18.7 21 Q 16 23 13.3 21 Z" fill="url(#skin)" stroke="#999" stroke-width="0.18" stroke-linecap="round" stroke-linejoin="round"/></g><path d="M 10.8 20 Q 16 18.5 21.2 20 L 23.2 32 Q 16 34 8.8 32 Z" fill="url(#skin)"/><path d="M 8.3 22 Q 7.300000000000001 27 8.3 30 Q 9.3 31 17 25 L 18.4 26.5 Q 11.3 34 10.3 30 L 10.3 22 Z" fill="url(#skin)" stroke="#aeaeae" stroke-width="0.18" stroke-linecap="round" stroke-linejoin="round"/><path d="M 22.4 22 Q 21.4 27 22.4 30 Q 23.4 31 17 25 L 18.4 26.5 Q 25.4 34 24.4 30 L 24.4 22 Z" fill="url(#skin)" stroke="#aeaeae" stroke-width="0.18" stroke-linecap="round" stroke-linejoin="round"/><path d="M 10.8 31 L 21.2 31 L 20.2 43.8 L 17.5 43.8 L 16 35 L 14.5 43.8 L 11.8 43.8 Z" fill="url(#skin)"/></g></g></svg>