<svg xmlns="http://www.w3.org/2000/svg" width="512" height="576" viewBox="0 0 128 144"><defs>
 <linearGradient id="skin" x1="0" y1="0" x2="1" y2=".7"><stop stop-color="#ffffff"/><stop offset=".48" stop-color="#f3f3f3"/><stop offset="1" stop-color="#b9b9b9"/></linearGradient>
 <linearGradient id="hair" x1="0" y1="0" x2=".9" y2="1"><stop stop-color="#ffffff"/><stop offset=".33" stop-color="#dbdbdb"/><stop offset=".76" stop-color="#909090"/><stop offset="1" stop-color="#666666"/></linearGradient>
 <linearGradient id="cloth" x1="0" y1="0" x2="1" y2=".7"><stop stop-color="#eeeeee"/><stop offset=".4" stop-color="#bbbbbb"/><stop offset="1" stop-color="#717171"/></linearGradient>
 <linearGradient id="navy" x1="0" y1="0" x2="1" y2=".7"><stop stop-color="#50647d"/><stop offset=".5" stop-color="#344157"/><stop offset="1" stop-color="#1d293d"/></linearGradient>
 <linearGradient id="white" x1="0" y1="0" x2="1" y2="1"><stop stop-color="#faf8f3"/><stop offset=".65" stop-color="#dedfe4"/><stop offset="1" stop-color="#a9b6c8"/></linearGradient>
 <linearGradient id="denim" x1="0" y1="0" x2="1" y2=".6"><stop stop-color="#657896"/><stop offset=".5" stop-color="#3b526e"/><stop offset="1" stop-color="#23364e"/></linearGradient>
 <radialGradient id="iris"><stop stop-color="#d8d8d8"/><stop offset=".65" stop-color="#fafafa"/><stop offset="1" stop-color="#707070"/></radialGradient>
 <linearGradient id="leather" x1="0" y1="0" x2="1" y2=".8"><stop stop-color="#bd9870"/><stop offset=".4" stop-color="#96714e"/><stop offset="1" stop-color="#594636"/></linearGradient>
 </defs><g transform="translate(0 0)"><g transform="translate(0 0)"><path d="M 13.5 19.3 Q 10.7 19 9.7 21 L 11.299999999999999 31.8 Q 16 33 20.7 31.8 L 22.3 21 Q 21.3 19 18.5 19.3 L 16 22 Z" fill="url(#navy)" stroke="#24344e" stroke-width="0.25" stroke-linecap="round" stroke-linejoin="round"/><path d="M 8.7 20.5 Q 7.699999999999999 24 8.7 27.8 L 11.1 27.8 L 11.299999999999999 22 Z" fill="url(#navy)" stroke="#24344e" stroke-width="0.22" stroke-linecap="round" stroke-linejoin="round"/><path d="M 21.1 20.5 Q 20.1 24 21.1 27.8 L 23.5 27.8 L 23.700000000000003 22 Z" fill="url(#navy)" stroke="#24344e" stroke-width="0.22" stroke-linecap="round" stroke-linejoin="round"/><path d="M 13.1 19.8 Q 16 23 18.9 19.8" fill="none" stroke="#8c9cae" stroke-width="0.34" stroke-linecap="round" stroke-linejoin="round"/><path d="M 12.1 27 L 13.1 29.4 M 19.900000000000002 27 L 18.900000000000002 29.4" fill="none" stroke="#929eaf" stroke-width="0.24" stroke-linecap="round" stroke-linejoin="round"/><path d="M 12 21 L 20 21 L 21 32 L 11 32 Z" fill="#bb9370" stroke="#24344e" stroke-width="0.22" stroke-linecap="round" stroke-linejoin="round"/><rect x="13" y="26" width="6" height="3" rx="0.2" fill="#a78060"/><defs><clipPath id="texture_2785"><path d="M 13.5 19.3 Q 10.7 19 9.7 21 L 11.299999999999999 31.8 Q 16 33 20.7 31.8 L 22.3 21 Q 21.3 19 18.5 19.3 L 16 22 Z" fill="url(#navy)" stroke="#24344e" stroke-width="0.25" stroke-linecap="round" stroke-linejoin="round"/><path d="M 8.7 20.5 Q 7.699999999999999 24 8.7 27.8 L 11.1 27.8 L 11.299999999999999 22 Z" fill="url(#navy)" stroke="#24344e" stroke-width="0.22" stroke-linecap="round" stroke-linejoin="round"/><path d="M 21.1 20.5 Q 20.1 24 21.1 27.8 L 23.5 27.8 L 23.700000000000003 22 Z" fill="url(#navy)" stroke="#24344e" stroke-width="0.22" stroke-linecap="round" stroke-linejoin="round"/><path d="M 13.1 19.8 Q 16 23 18.9 19.8" fill="none" stroke="#8c9cae" stroke-width="0.34" stroke-linecap="round" stroke-linejoin="round"/><path d="M 12.1 27 L 13.1 29.4 M 19.900000000000002 27 L 18.900000000000002 29.4" fill="none" stroke="#929eaf" stroke-width="0.24" stroke-linecap="round" stroke-linejoin="round"/><path d="M 12 21 L 20 21 L 21 32 L 11 32 Z" fill="#bb9370" stroke="#24344e" stroke-width="0.22" stroke-linecap="round" stroke-linejoin="round"/><rect x="13" y="26" width="6" height="3" rx="0.2" fill="#a78060"/></clipPath></defs><g clip-path="url(#texture_2785)"><image href="../components/clothing_barista_0.png" x="8.55" y="19" width="14.9" height="27" preserveAspectRatio="none"/></g></g></g><g transform="translate(32 0)"><g transform="translate(0 -0.45)"><path d="M 13.5 19.3 Q 10.7 19 9.7 21 L 11.299999999999999 31.8 Q 16 33 20.7 31.8 L 22.3 21 Q 21.3 19 18.5 19.3 L 16 22 Z" fill="url(#navy)" stroke="#24344e" stroke-width="0.25" stroke-linecap="round" stroke-linejoin="round"/><path d="M 8.7 20.5 Q 7.699999999999999 24 9.2 27.8 L 11.6 27.8 L 11.299999999999999 22 Z" fill="url(#navy)" stroke="#24344e" stroke-width="0.22" stroke-linecap="round" stroke-linejoin="round"/><path d="M 21.1 20.5 Q 20.1 24 20.6 27.8 L 23.0 27.8 L 23.700000000000003 22 Z" fill="url(#navy)" stroke="#24344e" stroke-width="0.22" stroke-linecap="round" stroke-linejoin="round"/><path d="M 13.1 19.8 Q 16 23 18.9 19.8" fill="none" stroke="#8c9cae" stroke-width="0.34" stroke-linecap="round" stroke-linejoin="round"/><path d="M 12.1 27 L 13.1 29.4 M 19.900000000000002 27 L 18.900000000000002 29.4" fill="none" stroke="#929eaf" stroke-width="0.24" stroke-linecap="round" stroke-linejoin="round"/><path d="M 12 21 L 20 21 L 21 32 L 11 32 Z" fill="#bb9370" stroke="#24344e" stroke-width="0.22" stroke-linecap="round" stroke-linejoin="round"/><rect x="13" y="26" width="6" height="3" rx="0.2" fill="#a78060"/><defs><clipPath id="texture_2786"><path d="M 13.5 19.3 Q 10.7 19 9.7 21 L 11.299999999999999 31.8 Q 16 33 20.7 31.8 L 22.3 21 Q 21.3 19 18.5 19.3 L 16 22 Z" fill="url(#navy)" stroke="#24344e" stroke-width="0.25" stroke-linecap="round" stroke-linejoin="round"/><path d="M 8.7 20.5 Q 7.699999999999999 24 9.2 27.8 L 11.6 27.8 L 11.299999999999999 22 Z" fill="url(#navy)" stroke="#24344e" stroke-width="0.22" stroke-linecap="round" stroke-linejoin="round"/><path d="M 21.1 20.5 Q 20.1 24 20.6 27.8 L 23.0 27.8 L 23.700000000000003 22 Z" fill="url(#navy)" stroke="#24344e" stroke-width="0.22" stroke-linecap="round" stroke-linejoin="round"/><path d="M 13.1 19.8 Q 16 23 18.9 19.8" fill="none" stroke="#8c9cae" stroke-width="0.34" stroke-linecap="round" stroke-linejoin="round"/><path d="M 12.1 27 L 13.1 29.4 M 19.900000000000002 27 L 18.900000000000002 29.4" fill="none" stroke="#929eaf" stroke-width="0.24" stroke-linecap="round" stroke-linejoin="round"/><path d="M 12 21 L 20 21 L 21 32 L 11 32 Z" fill="#bb9370" stroke="#24344e" stroke-width="0.22" stroke-linecap="round" stroke-linejoin="round"/><rect x="13" y="26" width="6" height="3" rx="0.2" fill="#a78060"/></clipPath></defs><g clip-path="url(#texture_2786)"><image href="../components/clothing_barista_0.png" x="8.55" y="19" width="14.9" height="27" preserveAspectRatio="none"/></g></g></g><g transform="translate(64 0)"><g transform="translate(0 0)"><path d="M 13.5 19.3 Q 10.7 19 9.7 21 L 11.299999999999999 31.8 Q 16 33 20.7 31.8 L 22.3 21 Q 21.3 19 18.5 19.3 L 16 22 Z" fill="url(#navy)" stroke="#24344e" stroke-width="0.25" stroke-linecap="round" stroke-linejoin="round"/><path d="M 8.7 20.5 Q 7.699999999999999 24 8.7 27.8 L 11.1 27.8 L 11.299999999999999 22 Z" fill="url(#navy)" stroke="#24344e" stroke-width="0.22" stroke-linecap="round" stroke-linejoin="round"/><path d="M 21.1 20.5 Q 20.1 24 21.1 27.8 L 23.5 27.8 L 23.700000000000003 22 Z" fill="url(#navy)" stroke="#24344e" stroke-width="0.22" stroke-linecap="round" stroke-linejoin="round"/><path d="M 13.1 19.8 Q 16 23 18.9 19.8" fill="none" stroke="#8c9cae" stroke-width="0.34" stroke-linecap="round" stroke-linejoin="round"/><path d="M 12.1 27 L 13.1 29.4 M 19.900000000000002 27 L 18.900000000000002 29.4" fill="none" stroke="#929eaf" stroke-width="0.24" stroke-linecap="round" stroke-linejoin="round"/><path d="M 12 21 L 20 21 L 21 32 L 11 32 Z" fill="#bb9370" stroke="#24344e" stroke-width="0.22" stroke-linecap="round" stroke-linejoin="round"/><rect x="13" y="26" width="6" height="3" rx="0.2" fill="#a78060"/><defs><clipPath id="texture_2787"><path d="M 13.5 19.3 Q 10.7 19 9.7 21 L 11.299999999999999 31.8 Q 16 33 20.7 31.8 L 22.3 21 Q 21.3 19 18.5 19.3 L 16 22 Z" fill="url(#navy)" stroke="#24344e" stroke-width="0.25" stroke-linecap="round" stroke-linejoin="round"/><path d="M 8.7 20.5 Q 7.699999999999999 24 8.7 27.8 L 11.1 27.8 L 11.299999999999999 22 Z" fill="url(#navy)" stroke="#24344e" stroke-width="0.22" stroke-linecap="round" stroke-linejoin="round"/><path d="M 21.1 20.5 Q 20.1 24 21.1 27.8 L 23.5 27.8 L 23.700000000000003 22 Z" fill="url(#navy)" stroke="#24344e" stroke-width="0.22" stroke-linecap="round" stroke-linejoin="round"/><path d="M 13.1 19.8 Q 16 23 18.9 19.8" fill="none" stroke="#8c9cae" stroke-width="0.34" stroke-linecap="round" stroke-linejoin="round"/><path d="M 12.1 27 L 13.1 29.4 M 19.900000000000002 27 L 18.900000000000002 29.4" fill="none" stroke="#929eaf" stroke-width="0.24" stroke-linecap="round" stroke-linejoin="round"/><path d="M 12 21 L 20 21 L 21 32 L 11 32 Z" fill="#bb9370" stroke="#24344e" stroke-width="0.22" stroke-linecap="round" stroke-linejoin="round"/><rect x="13" y="26" width="6" height="3" rx="0.2" fill="#a78060"/></clipPath></defs><g clip-path="url(#texture_2787)"><image href="../components/clothing_barista_0.png" x="8.55" y="19" width="14.9" height="27" preserveAspectRatio="none"/></g></g></g><g transform="translate(96 0)"><g transform="translate(0 -0.45)"><path d="M 13.5 19.3 Q 10.7 19 9.7 21 L 11.299999999999999 31.8 Q 16 33 20.7 31.8 L 22.3 21 Q 21.3 19 18.5 19.3 L 16 22 Z" fill="url(#navy)" stroke="#24344e" stroke-width="0.25" stroke-linecap="round" stroke-linejoin="round"/><path d="M 8.7 20.5 Q 7.699999999999999 24 8.2 27.8 L 10.6 27.8 L 11.299999999999999 22 Z" fill="url(#navy)" stroke="#24344e" stroke-width="0.22" stroke-linecap="round" stroke-linejoin="round"/><path d="M 21.1 20.5 Q 20.1 24 21.6 27.8 L 24.0 27.8 L 23.700000000000003 22 Z" fill="url(#navy)" stroke="#24344e" stroke-width="0.22" stroke-linecap="round" stroke-linejoin="round"/><path d="M 13.1 19.8 Q 16 23 18.9 19.8" fill="none" stroke="#8c9cae" stroke-width="0.34" stroke-linecap="round" stroke-linejoin="round"/><path d="M 12.1 27 L 13.1 29.4 M 19.900000000000002 27 L 18.900000000000002 29.4" fill="none" stroke="#929eaf" stroke-width="0.24" stroke-linecap="round" stroke-linejoin="round"/><path d="M 12 21 L 20 21 L 21 32 L 11 32 Z" fill="#bb9370" stroke="#24344e" stroke-width="0.22" stroke-linecap="round" stroke-linejoin="round"/><rect x="13" y="26" width="6" height="3" rx="0.2" fill="#a78060"/><defs><clipPath id="texture_2788"><path d="M 13.5 19.3 Q 10.7 19 9.7 21 L 11.299999999999999 31.8 Q 16 33 20.7 31.8 L 22.3 21 Q 21.3 19 18.5 19.3 L 16 22 Z" fill="url(#navy)" stroke="#24344e" stroke-width="0.25" stroke-linecap="round" stroke-linejoin="round"/><path d="M 8.7 20.5 Q 7.699999999999999 24 8.2 27.8 L 10.6 27.8 L 11.299999999999999 22 Z" fill="url(#navy)" stroke="#24344e" stroke-width="0.22" stroke-linecap="round" stroke-linejoin="round"/><path d="M 21.1 20.5 Q 20.1 24 21.6 27.8 L 24.0 27.8 L 23.700000000000003 22 Z" fill="url(#navy)" stroke="#24344e" stroke-width="0.22" stroke-linecap="round" stroke-linejoin="round"/><path d="M 13.1 19.8 Q 16 23 18.9 19.8" fill="none" stroke="#8c9cae" stroke-width="0.34" stroke-linecap="round" stroke-linejoin="round"/><path d="M 12.1 27 L 13.1 29.4 M 19.900000000000002 27 L 18.900000000000002 29.4" fill="none" stroke="#929eaf" stroke-width="0.24" stroke-linecap="round" stroke-linejoin="round"/><path d="M 12 21 L 20 21 L 21 32 L 11 32 Z" fill="#bb9370" stroke="#24344e" stroke-width="0.22" stroke-linecap="round" stroke-linejoin="round"/><rect x="13" y="26" width="6" height="3" rx="0.2" fill="#a78060"/></clipPath></defs><g clip-path="url(#texture_2788)"><image href="../components/clothing_barista_0.png" x="8.55" y="19" width="14.9" height="27" preserveAspectRatio="none"/></g></g></g><g transform="translate(0 48)"><g transform="translate(0 0)"><path d="M 13.5 19.3 Q 12.7 19 11.7 21 L 13.299999999999999 31.8 Q 16 33 20.0 31.8 L 21.6 21 Q 20.6 19 18.5 19.3 L 16 22 Z" fill="url(#navy)" stroke="#24344e" stroke-width="0.25" stroke-linecap="round" stroke-linejoin="round"/><path d="M 10.7 20.5 Q 9.7 24 10.7 27.8 L 13.1 27.8 L 13.299999999999999 22 Z" fill="url(#navy)" stroke="#24344e" stroke-width="0.22" stroke-linecap="round" stroke-linejoin="round"/><path d="M 20.400000000000002 20.5 Q 19.400000000000002 24 20.400000000000002 27.8 L 22.8 27.8 L 23.000000000000004 22 Z" fill="url(#navy)" stroke="#24344e" stroke-width="0.22" stroke-linecap="round" stroke-linejoin="round"/><path d="M 13.1 19.8 Q 16 23 18.9 19.8" fill="none" stroke="#8c9cae" stroke-width="0.34" stroke-linecap="round" stroke-linejoin="round"/><path d="M 14.1 27 L 15.1 29.4 M 19.200000000000003 27 L 18.200000000000003 29.4" fill="none" stroke="#929eaf" stroke-width="0.24" stroke-linecap="round" stroke-linejoin="round"/><path d="M 12 21 L 20 21 L 21 32 L 11 32 Z" fill="#bb9370" stroke="#24344e" stroke-width="0.22" stroke-linecap="round" stroke-linejoin="round"/><rect x="13" y="26" width="6" height="3" rx="0.2" fill="#a78060"/><defs><clipPath id="texture_2789"><path d="M 13.5 19.3 Q 12.7 19 11.7 21 L 13.299999999999999 31.8 Q 16 33 20.0 31.8 L 21.6 21 Q 20.6 19 18.5 19.3 L 16 22 Z" fill="url(#navy)" stroke="#24344e" stroke-width="0.25" stroke-linecap="round" stroke-linejoin="round"/><path d="M 10.7 20.5 Q 9.7 24 10.7 27.8 L 13.1 27.8 L 13.299999999999999 22 Z" fill="url(#navy)" stroke="#24344e" stroke-width="0.22" stroke-linecap="round" stroke-linejoin="round"/><path d="M 20.400000000000002 20.5 Q 19.400000000000002 24 20.400000000000002 27.8 L 22.8 27.8 L 23.000000000000004 22 Z" fill="url(#navy)" stroke="#24344e" stroke-width="0.22" stroke-linecap="round" stroke-linejoin="round"/><path d="M 13.1 19.8 Q 16 23 18.9 19.8" fill="none" stroke="#8c9cae" stroke-width="0.34" stroke-linecap="round" stroke-linejoin="round"/><path d="M 14.1 27 L 15.1 29.4 M 19.200000000000003 27 L 18.200000000000003 29.4" fill="none" stroke="#929eaf" stroke-width="0.24" stroke-linecap="round" stroke-linejoin="round"/><path d="M 12 21 L 20 21 L 21 32 L 11 32 Z" fill="#bb9370" stroke="#24344e" stroke-width="0.22" stroke-linecap="round" stroke-linejoin="round"/><rect x="13" y="26" width="6" height="3" rx="0.2" fill="#a78060"/></clipPath></defs><g clip-path="url(#texture_2789)"><image href="../components/clothing_barista_1.png" x="10.5" y="19" width="12.7" height="27" preserveAspectRatio="none"/></g></g></g><g transform="translate(32 48)"><g transform="translate(0 -0.45)"><path d="M 13.5 19.3 Q 12.7 19 11.7 21 L 13.299999999999999 31.8 Q 16 33 20.0 31.8 L 21.6 21 Q 20.6 19 18.5 19.3 L 16 22 Z" fill="url(#navy)" stroke="#24344e" stroke-width="0.25" stroke-linecap="round" stroke-linejoin="round"/><path d="M 10.7 20.5 Q 9.7 24 11.2 27.8 L 13.6 27.8 L 13.299999999999999 22 Z" fill="url(#navy)" stroke="#24344e" stroke-width="0.22" stroke-linecap="round" stroke-linejoin="round"/><path d="M 20.400000000000002 20.5 Q 19.400000000000002 24 19.900000000000002 27.8 L 22.3 27.8 L 23.000000000000004 22 Z" fill="url(#navy)" stroke="#24344e" stroke-width="0.22" stroke-linecap="round" stroke-linejoin="round"/><path d="M 13.1 19.8 Q 16 23 18.9 19.8" fill="none" stroke="#8c9cae" stroke-width="0.34" stroke-linecap="round" stroke-linejoin="round"/><path d="M 14.1 27 L 15.1 29.4 M 19.200000000000003 27 L 18.200000000000003 29.4" fill="none" stroke="#929eaf" stroke-width="0.24" stroke-linecap="round" stroke-linejoin="round"/><path d="M 12 21 L 20 21 L 21 32 L 11 32 Z" fill="#bb9370" stroke="#24344e" stroke-width="0.22" stroke-linecap="round" stroke-linejoin="round"/><rect x="13" y="26" width="6" height="3" rx="0.2" fill="#a78060"/><defs><clipPath id="texture_2790"><path d="M 13.5 19.3 Q 12.7 19 11.7 21 L 13.299999999999999 31.8 Q 16 33 20.0 31.8 L 21.6 21 Q 20.6 19 18.5 19.3 L 16 22 Z" fill="url(#navy)" stroke="#24344e" stroke-width="0.25" stroke-linecap="round" stroke-linejoin="round"/><path d="M 10.7 20.5 Q 9.7 24 11.2 27.8 L 13.6 27.8 L 13.299999999999999 22 Z" fill="url(#navy)" stroke="#24344e" stroke-width="0.22" stroke-linecap="round" stroke-linejoin="round"/><path d="M 20.400000000000002 20.5 Q 19.400000000000002 24 19.900000000000002 27.8 L 22.3 27.8 L 23.000000000000004 22 Z" fill="url(#navy)" stroke="#24344e" stroke-width="0.22" stroke-linecap="round" stroke-linejoin="round"/><path d="M 13.1 19.8 Q 16 23 18.9 19.8" fill="none" stroke="#8c9cae" stroke-width="0.34" stroke-linecap="round" stroke-linejoin="round"/><path d="M 14.1 27 L 15.1 29.4 M 19.200000000000003 27 L 18.200000000000003 29.4" fill="none" stroke="#929eaf" stroke-width="0.24" stroke-linecap="round" stroke-linejoin="round"/><path d="M 12 21 L 20 21 L 21 32 L 11 32 Z" fill="#bb9370" stroke="#24344e" stroke-width="0.22" stroke-linecap="round" stroke-linejoin="round"/><rect x="13" y="26" width="6" height="3" rx="0.2" fill="#a78060"/></clipPath></defs><g clip-path="url(#texture_2790)"><image href="../components/clothing_barista_1.png" x="10.5" y="19" width="12.7" height="27" preserveAspectRatio="none"/></g></g></g><g transform="translate(64 48)"><g transform="translate(0 0)"><path d="M 13.5 19.3 Q 12.7 19 11.7 21 L 13.299999999999999 31.8 Q 16 33 20.0 31.8 L 21.6 21 Q 20.6 19 18.5 19.3 L 16 22 Z" fill="url(#navy)" stroke="#24344e" stroke-width="0.25" stroke-linecap="round" stroke-linejoin="round"/><path d="M 10.7 20.5 Q 9.7 24 10.7 27.8 L 13.1 27.8 L 13.299999999999999 22 Z" fill="url(#navy)" stroke="#24344e" stroke-width="0.22" stroke-linecap="round" stroke-linejoin="round"/><path d="M 20.400000000000002 20.5 Q 19.400000000000002 24 20.400000000000002 27.8 L 22.8 27.8 L 23.000000000000004 22 Z" fill="url(#navy)" stroke="#24344e" stroke-width="0.22" stroke-linecap="round" stroke-linejoin="round"/><path d="M 13.1 19.8 Q 16 23 18.9 19.8" fill="none" stroke="#8c9cae" stroke-width="0.34" stroke-linecap="round" stroke-linejoin="round"/><path d="M 14.1 27 L 15.1 29.4 M 19.200000000000003 27 L 18.200000000000003 29.4" fill="none" stroke="#929eaf" stroke-width="0.24" stroke-linecap="round" stroke-linejoin="round"/><path d="M 12 21 L 20 21 L 21 32 L 11 32 Z" fill="#bb9370" stroke="#24344e" stroke-width="0.22" stroke-linecap="round" stroke-linejoin="round"/><rect x="13" y="26" width="6" height="3" rx="0.2" fill="#a78060"/><defs><clipPath id="texture_2791"><path d="M 13.5 19.3 Q 12.7 19 11.7 21 L 13.299999999999999 31.8 Q 16 33 20.0 31.8 L 21.6 21 Q 20.6 19 18.5 19.3 L 16 22 Z" fill="url(#navy)" stroke="#24344e" stroke-width="0.25" stroke-linecap="round" stroke-linejoin="round"/><path d="M 10.7 20.5 Q 9.7 24 10.7 27.8 L 13.1 27.8 L 13.299999999999999 22 Z" fill="url(#navy)" stroke="#24344e" stroke-width="0.22" stroke-linecap="round" stroke-linejoin="round"/><path d="M 20.400000000000002 20.5 Q 19.400000000000002 24 20.400000000000002 27.8 L 22.8 27.8 L 23.000000000000004 22 Z" fill="url(#navy)" stroke="#24344e" stroke-width="0.22" stroke-linecap="round" stroke-linejoin="round"/><path d="M 13.1 19.8 Q 16 23 18.9 19.8" fill="none" stroke="#8c9cae" stroke-width="0.34" stroke-linecap="round" stroke-linejoin="round"/><path d="M 14.1 27 L 15.1 29.4 M 19.200000000000003 27 L 18.200000000000003 29.4" fill="none" stroke="#929eaf" stroke-width="0.24" stroke-linecap="round" stroke-linejoin="round"/><path d="M 12 21 L 20 21 L 21 32 L 11 32 Z" fill="#bb9370" stroke="#24344e" stroke-width="0.22" stroke-linecap="round" stroke-linejoin="round"/><rect x="13" y="26" width="6" height="3" rx="0.2" fill="#a78060"/></clipPath></defs><g clip-path="url(#texture_2791)"><image href="../components/clothing_barista_1.png" x="10.5" y="19" width="12.7" height="27" preserveAspectRatio="none"/></g></g></g><g transform="translate(96 48)"><g transform="translate(0 -0.45)"><path d="M 13.5 19.3 Q 12.7 19 11.7 21 L 13.299999999999999 31.8 Q 16 33 20.0 31.8 L 21.6 21 Q 20.6 19 18.5 19.3 L 16 22 Z" fill="url(#navy)" stroke="#24344e" stroke-width="0.25" stroke-linecap="round" stroke-linejoin="round"/><path d="M 10.7 20.5 Q 9.7 24 10.2 27.8 L 12.6 27.8 L 13.299999999999999 22 Z" fill="url(#navy)" stroke="#24344e" stroke-width="0.22" stroke-linecap="round" stroke-linejoin="round"/><path d="M 20.400000000000002 20.5 Q 19.400000000000002 24 20.900000000000002 27.8 L 23.3 27.8 L 23.000000000000004 22 Z" fill="url(#navy)" stroke="#24344e" stroke-width="0.22" stroke-linecap="round" stroke-linejoin="round"/><path d="M 13.1 19.8 Q 16 23 18.9 19.8" fill="none" stroke="#8c9cae" stroke-width="0.34" stroke-linecap="round" stroke-linejoin="round"/><path d="M 14.1 27 L 15.1 29.4 M 19.200000000000003 27 L 18.200000000000003 29.4" fill="none" stroke="#929eaf" stroke-width="0.24" stroke-linecap="round" stroke-linejoin="round"/><path d="M 12 21 L 20 21 L 21 32 L 11 32 Z" fill="#bb9370" stroke="#24344e" stroke-width="0.22" stroke-linecap="round" stroke-linejoin="round"/><rect x="13" y="26" width="6" height="3" rx="0.2" fill="#a78060"/><defs><clipPath id="texture_2792"><path d="M 13.5 19.3 Q 12.7 19 11.7 21 L 13.299999999999999 31.8 Q 16 33 20.0 31.8 L 21.6 21 Q 20.6 19 18.5 19.3 L 16 22 Z" fill="url(#navy)" stroke="#24344e" stroke-width="0.25" stroke-linecap="round" stroke-linejoin="round"/><path d="M 10.7 20.5 Q 9.7 24 10.2 27.8 L 12.6 27.8 L 13.299999999999999 22 Z" fill="url(#navy)" stroke="#24344e" stroke-width="0.22" stroke-linecap="round" stroke-linejoin="round"/><path d="M 20.400000000000002 20.5 Q 19.400000000000002 24 20.900000000000002 27.8 L 23.3 27.8 L 23.000000000000004 22 Z" fill="url(#navy)" stroke="#24344e" stroke-width="0.22" stroke-linecap="round" stroke-linejoin="round"/><path d="M 13.1 19.8 Q 16 23 18.9 19.8" fill="none" stroke="#8c9cae" stroke-width="0.34" stroke-linecap="round" stroke-linejoin="round"/><path d="M 14.1 27 L 15.1 29.4 M 19.200000000000003 27 L 18.200000000000003 29.4" fill="none" stroke="#929eaf" stroke-width="0.24" stroke-linecap="round" stroke-linejoin="round"/><path d="M 12 21 L 20 21 L 21 32 L 11 32 Z" fill="#bb9370" stroke="#24344e" stroke-width="0.22" stroke-linecap="round" stroke-linejoin="round"/><rect x="13" y="26" width="6" height="3" rx="0.2" fill="#a78060"/></clipPath></defs><g clip-path="url(#texture_2792)"><image href="../components/clothing_barista_1.png" x="10.5" y="19" width="12.7" height="27" preserveAspectRatio="none"/></g></g></g><g transform="translate(0 96)"><g transform="translate(0 0)"><path d="M 13.5 19.3 Q 10.7 19 9.7 21 L 11.299999999999999 31.8 Q 16 33 20.7 31.8 L 22.3 21 Q 21.3 19 18.5 19.3 L 16 22 Z" fill="url(#navy)" stroke="#24344e" stroke-width="0.25" stroke-linecap="round" stroke-linejoin="round"/><path d="M 8.7 20.5 Q 7.699999999999999 24 8.7 27.8 L 11.1 27.8 L 11.299999999999999 22 Z" fill="url(#navy)" stroke="#24344e" stroke-width="0.22" stroke-linecap="round" stroke-linejoin="round"/><path d="M 21.1 20.5 Q 20.1 24 21.1 27.8 L 23.5 27.8 L 23.700000000000003 22 Z" fill="url(#navy)" stroke="#24344e" stroke-width="0.22" stroke-linecap="round" stroke-linejoin="round"/><path d="M 12.1 27 L 13.1 29.4 M 19.900000000000002 27 L 18.900000000000002 29.4" fill="none" stroke="#929eaf" stroke-width="0.24" stroke-linecap="round" stroke-linejoin="round"/><defs><clipPath id="texture_2793"><path d="M 13.5 19.3 Q 10.7 19 9.7 21 L 11.299999999999999 31.8 Q 16 33 20.7 31.8 L 22.3 21 Q 21.3 19 18.5 19.3 L 16 22 Z" fill="url(#navy)" stroke="#24344e" stroke-width="0.25" stroke-linecap="round" stroke-linejoin="round"/><path d="M 8.7 20.5 Q 7.699999999999999 24 8.7 27.8 L 11.1 27.8 L 11.299999999999999 22 Z" fill="url(#navy)" stroke="#24344e" stroke-width="0.22" stroke-linecap="round" stroke-linejoin="round"/><path d="M 21.1 20.5 Q 20.1 24 21.1 27.8 L 23.5 27.8 L 23.700000000000003 22 Z" fill="url(#navy)" stroke="#24344e" stroke-width="0.22" stroke-linecap="round" stroke-linejoin="round"/><path d="M 12.1 27 L 13.1 29.4 M 19.900000000000002 27 L 18.900000000000002 29.4" fill="none" stroke="#929eaf" stroke-width="0.24" stroke-linecap="round" stroke-linejoin="round"/></clipPath></defs><g clip-path="url(#texture_2793)"><image href="../components/clothing_barista_2.png" x="8.55" y="19" width="14.9" height="27" preserveAspectRatio="none"/></g></g></g><g transform="translate(32 96)"><g transform="translate(0 -0.45)"><path d="M 13.5 19.3 Q 10.7 19 9.7 21 L 11.299999999999999 31.8 Q 16 33 20.7 31.8 L 22.3 21 Q 21.3 19 18.5 19.3 L 16 22 Z" fill="url(#navy)" stroke="#24344e" stroke-width="0.25" stroke-linecap="round" stroke-linejoin="round"/><path d="M 8.7 20.5 Q 7.699999999999999 24 9.2 27.8 L 11.6 27.8 L 11.299999999999999 22 Z" fill="url(#navy)" stroke="#24344e" stroke-width="0.22" stroke-linecap="round" stroke-linejoin="round"/><path d="M 21.1 20.5 Q 20.1 24 20.6 27.8 L 23.0 27.8 L 23.700000000000003 22 Z" fill="url(#navy)" stroke="#24344e" stroke-width="0.22" stroke-linecap="round" stroke-linejoin="round"/><path d="M 12.1 27 L 13.1 29.4 M 19.900000000000002 27 L 18.900000000000002 29.4" fill="none" stroke="#929eaf" stroke-width="0.24" stroke-linecap="round" stroke-linejoin="round"/><defs><clipPath id="texture_2794"><path d="M 13.5 19.3 Q 10.7 19 9.7 21 L 11.299999999999999 31.8 Q 16 33 20.7 31.8 L 22.3 21 Q 21.3 19 18.5 19.3 L 16 22 Z" fill="url(#navy)" stroke="#24344e" stroke-width="0.25" stroke-linecap="round" stroke-linejoin="round"/><path d="M 8.7 20.5 Q 7.699999999999999 24 9.2 27.8 L 11.6 27.8 L 11.299999999999999 22 Z" fill="url(#navy)" stroke="#24344e" stroke-width="0.22" stroke-linecap="round" stroke-linejoin="round"/><path d="M 21.1 20.5 Q 20.1 24 20.6 27.8 L 23.0 27.8 L 23.700000000000003 22 Z" fill="url(#navy)" stroke="#24344e" stroke-width="0.22" stroke-linecap="round" stroke-linejoin="round"/><path d="M 12.1 27 L 13.1 29.4 M 19.900000000000002 27 L 18.900000000000002 29.4" fill="none" stroke="#929eaf" stroke-width="0.24" stroke-linecap="round" stroke-linejoin="round"/></clipPath></defs><g clip-path="url(#texture_2794)"><image href="../components/clothing_barista_2.png" x="8.55" y="19" width="14.9" height="27" preserveAspectRatio="none"/></g></g></g><g transform="translate(64 96)"><g transform="translate(0 0)"><path d="M 13.5 19.3 Q 10.7 19 9.7 21 L 11.299999999999999 31.8 Q 16 33 20.7 31.8 L 22.3 21 Q 21.3 19 18.5 19.3 L 16 22 Z" fill="url(#navy)" stroke="#24344e" stroke-width="0.25" stroke-linecap="round" stroke-linejoin="round"/><path d="M 8.7 20.5 Q 7.699999999999999 24 8.7 27.8 L 11.1 27.8 L 11.299999999999999 22 Z" fill="url(#navy)" stroke="#24344e" stroke-width="0.22" stroke-linecap="round" stroke-linejoin="round"/><path d="M 21.1 20.5 Q 20.1 24 21.1 27.8 L 23.5 27.8 L 23.700000000000003 22 Z" fill="url(#navy)" stroke="#24344e" stroke-width="0.22" stroke-linecap="round" stroke-linejoin="round"/><path d="M 12.1 27 L 13.1 29.4 M 19.900000000000002 27 L 18.900000000000002 29.4" fill="none" stroke="#929eaf" stroke-width="0.24" stroke-linecap="round" stroke-linejoin="round"/><defs><clipPath id="texture_2795"><path d="M 13.5 19.3 Q 10.7 19 9.7 21 L 11.299999999999999 31.8 Q 16 33 20.7 31.8 L 22.3 21 Q 21.3 19 18.5 19.3 L 16 22 Z" fill="url(#navy)" stroke="#24344e" stroke-width="0.25" stroke-linecap="round" stroke-linejoin="round"/><path d="M 8.7 20.5 Q 7.699999999999999 24 8.7 27.8 L 11.1 27.8 L 11.299999999999999 22 Z" fill="url(#navy)" stroke="#24344e" stroke-width="0.22" stroke-linecap="round" stroke-linejoin="round"/><path d="M 21.1 20.5 Q 20.1 24 21.1 27.8 L 23.5 27.8 L 23.700000000000003 22 Z" fill="url(#navy)" stroke="#24344e" stroke-width="0.22" stroke-linecap="round" stroke-linejoin="round"/><path d="M 12.1 27 L 13.1 29.4 M 19.900000000000002 27 L 18.900000000000002 29.4" fill="none" stroke="#929eaf" stroke-width="0.24" stroke-linecap="round" stroke-linejoin="round"/></clipPath></defs><g clip-path="url(#texture_2795)"><image href="../components/clothing_barista_2.png" x="8.55" y="19" width="14.9" height="27" preserveAspectRatio="none"/></g></g></g><g transform="translate(96 96)"><g transform="translate(0 -0.45)"><path d="M 13.5 19.3 Q 10.7 19 9.7 21 L 11.299999999999999 31.8 Q 16 33 20.7 31.8 L 22.3 21 Q 21.3 19 18.5 19.3 L 16 22 Z" fill="url(#navy)" stroke="#24344e" stroke-width="0.25" stroke-linecap="round" stroke-linejoin="round"/><path d="M 8.7 20.5 Q 7.699999999999999 24 8.2 27.8 L 10.6 27.8 L 11.299999999999999 22 Z" fill="url(#navy)" stroke="#24344e" stroke-width="0.22" stroke-linecap="round" stroke-linejoin="round"/><path d="M 21.1 20.5 Q 20.1 24 21.6 27.8 L 24.0 27.8 L 23.700000000000003 22 Z" fill="url(#navy)" stroke="#24344e" stroke-width="0.22" stroke-linecap="round" stroke-linejoin="round"/><path d="M 12.1 27 L 13.1 29.4 M 19.900000000000002 27 L 18.900000000000002 29.4" fill="none" stroke="#929eaf" stroke-width="0.24" stroke-linecap="round" stroke-linejoin="round"/><defs><clipPath id="texture_2796"><path d="M 13.5 19.3 Q 10.7 19 9.7 21 L 11.299999999999999 31.8 Q 16 33 20.7 31.8 L 22.3 21 Q 21.3 19 18.5 19.3 L 16 22 Z" fill="url(#navy)" stroke="#24344e" stroke-width="0.25" stroke-linecap="round" stroke-linejoin="round"/><path d="M 8.7 20.5 Q 7.699999999999999 24 8.2 27.8 L 10.6 27.8 L 11.299999999999999 22 Z" fill="url(#navy)" stroke="#24344e" stroke-width="0.22" stroke-linecap="round" stroke-linejoin="round"/><path d="M 21.1 20.5 Q 20.1 24 21.6 27.8 L 24.0 27.8 L 23.700000000000003 22 Z" fill="url(#navy)" stroke="#24344e" stroke-width="0.22" stroke-linecap="round" stroke-linejoin="round"/><path d="M 12.1 27 L 13.1 29.4 M 19.900000000000002 27 L 18.900000000000002 29.4" fill="none" stroke="#929eaf" stroke-width="0.24" stroke-linecap="round" stroke-linejoin="round"/></clipPath></defs><g clip-path="url(#texture_2796)"><image href="../components/clothing_barista_2.png" x="8.55" y="19" width="14.9" height="27" preserveAspectRatio="none"/></g></g></g></svg>