<svg xmlns="http://www.w3.org/2000/svg" width="512" height="576" viewBox="0 0 128 144"><defs>
 <linearGradient id="skin" x1="0" y1="0" x2="1" y2=".7"><stop stop-color="#ffffff"/><stop offset=".48" stop-color="#f3f3f3"/><stop offset="1" stop-color="#b9b9b9"/></linearGradient>
 <linearGradient id="hair" x1="0" y1="0" x2=".9" y2="1"><stop stop-color="#ffffff"/><stop offset=".33" stop-color="#dbdbdb"/><stop offset=".76" stop-color="#909090"/><stop offset="1" stop-color="#666666"/></linearGradient>
 <linearGradient id="cloth" x1="0" y1="0" x2="1" y2=".7"><stop stop-color="#eeeeee"/><stop offset=".4" stop-color="#bbbbbb"/><stop offset="1" stop-color="#717171"/></linearGradient>
 <linearGradient id="navy" x1="0" y1="0" x2="1" y2=".7"><stop stop-color="#50647d"/><stop offset=".5" stop-color="#344157"/><stop offset="1" stop-color="#1d293d"/></linearGradient>
 <linearGradient id="white" x1="0" y1="0" x2="1" y2="1"><stop stop-color="#faf8f3"/><stop offset=".65" stop-color="#dedfe4"/><stop offset="1" stop-color="#a9b6c8"/></linearGradient>
 <linearGradient id="denim" x1="0" y1="0" x2="1" y2=".6"><stop stop-color="#657896"/><stop offset=".5" stop-color="#3b526e"/><stop offset="1" stop-color="#23364e"/></linearGradient>
 <radialGradient id="iris"><stop stop-color="#d8d8d8"/><stop offset=".65" stop-color="#fafafa"/><stop offset="1" stop-color="#707070"/></radialGradient>
 <linearGradient id="leather" x1="0" y1="0" x2="1" y2=".8"><stop stop-color="#bd9870"/><stop offset=".4" stop-color="#96714e"/><stop offset="1" stop-color="#594636"/></linearGradient>
 </defs><g transform="translate(0 0)"><g transform="translate(0 0)"><path d="M 10.9 31 L 21.1 31 L 21.1 44 L 18.0 44 L 16 35 L 14.0 44 L 10.9 44 Z" fill="url(#cloth)" stroke="#24344e" stroke-width="0.25" stroke-linecap="round" stroke-linejoin="round"/><path d="M 11.9 32 Q 11.9 34 13.9 35 M 20.1 32 Q 20.1 34 18.1 35" fill="none" stroke="#ddd" stroke-width="0.24" stroke-linecap="round" stroke-linejoin="round"/><path d="M 12.2 37 L 12.600000000000001 41.8 M 19.8 37 L 19.400000000000002 41.8" fill="none" stroke="#999" stroke-width="0.23" stroke-linecap="round" stroke-linejoin="round"/><defs><clipPath id="texture_5113"><path d="M 10.9 31 L 21.1 31 L 21.1 44 L 18.0 44 L 16 35 L 14.0 44 L 10.9 44 Z" fill="url(#cloth)" stroke="#24344e" stroke-width="0.25" stroke-linecap="round" stroke-linejoin="round"/><path d="M 11.9 32 Q 11.9 34 13.9 35 M 20.1 32 Q 20.1 34 18.1 35" fill="none" stroke="#ddd" stroke-width="0.24" stroke-linecap="round" stroke-linejoin="round"/><path d="M 12.2 37 L 12.600000000000001 41.8 M 19.8 37 L 19.400000000000002 41.8" fill="none" stroke="#999" stroke-width="0.23" stroke-linecap="round" stroke-linejoin="round"/></clipPath></defs><g clip-path="url(#texture_5113)"><image href="../components/clothing_courier_0.png" x="7.75" y="19" width="16.5" height="27" preserveAspectRatio="none"/></g></g></g><g transform="translate(32 0)"><g transform="translate(0 -0.45)"><path d="M 10.9 31 L 21.1 31 L 21.352 44 L 18.252 44 L 16 35 L 13.748 44 L 10.648 44 Z" fill="url(#cloth)" stroke="#24344e" stroke-width="0.25" stroke-linecap="round" stroke-linejoin="round"/><path d="M 11.9 32 Q 11.9 34 13.9 35 M 20.1 32 Q 20.1 34 18.1 35" fill="none" stroke="#ddd" stroke-width="0.24" stroke-linecap="round" stroke-linejoin="round"/><path d="M 12.2 37 L 12.600000000000001 41.8 M 19.8 37 L 19.400000000000002 41.8" fill="none" stroke="#999" stroke-width="0.23" stroke-linecap="round" stroke-linejoin="round"/><defs><clipPath id="texture_5114"><path d="M 10.9 31 L 21.1 31 L 21.352 44 L 18.252 44 L 16 35 L 13.748 44 L 10.648 44 Z" fill="url(#cloth)" stroke="#24344e" stroke-width="0.25" stroke-linecap="round" stroke-linejoin="round"/><path d="M 11.9 32 Q 11.9 34 13.9 35 M 20.1 32 Q 20.1 34 18.1 35" fill="none" stroke="#ddd" stroke-width="0.24" stroke-linecap="round" stroke-linejoin="round"/><path d="M 12.2 37 L 12.600000000000001 41.8 M 19.8 37 L 19.400000000000002 41.8" fill="none" stroke="#999" stroke-width="0.23" stroke-linecap="round" stroke-linejoin="round"/></clipPath></defs><g clip-path="url(#texture_5114)"><image href="../components/clothing_courier_0.png" x="7.75" y="19" width="16.5" height="27" preserveAspectRatio="none"/></g></g></g><g transform="translate(64 0)"><g transform="translate(0 0)"><path d="M 10.9 31 L 21.1 31 L 20.848000000000003 44 L 17.748 44 L 16 35 L 14.252 44 L 11.152000000000001 44 Z" fill="url(#cloth)" stroke="#24344e" stroke-width="0.25" stroke-linecap="round" stroke-linejoin="round"/><path d="M 11.9 32 Q 11.9 34 13.9 35 M 20.1 32 Q 20.1 34 18.1 35" fill="none" stroke="#ddd" stroke-width="0.24" stroke-linecap="round" stroke-linejoin="round"/><path d="M 12.2 37 L 12.600000000000001 41.8 M 19.8 37 L 19.400000000000002 41.8" fill="none" stroke="#999" stroke-width="0.23" stroke-linecap="round" stroke-linejoin="round"/><defs><clipPath id="texture_5115"><path d="M 10.9 31 L 21.1 31 L 20.848000000000003 44 L 17.748 44 L 16 35 L 14.252 44 L 11.152000000000001 44 Z" fill="url(#cloth)" stroke="#24344e" stroke-width="0.25" stroke-linecap="round" stroke-linejoin="round"/><path d="M 11.9 32 Q 11.9 34 13.9 35 M 20.1 32 Q 20.1 34 18.1 35" fill="none" stroke="#ddd" stroke-width="0.24" stroke-linecap="round" stroke-linejoin="round"/><path d="M 12.2 37 L 12.600000000000001 41.8 M 19.8 37 L 19.400000000000002 41.8" fill="none" stroke="#999" stroke-width="0.23" stroke-linecap="round" stroke-linejoin="round"/></clipPath></defs><g clip-path="url(#texture_5115)"><image href="../components/clothing_courier_0.png" x="7.75" y="19" width="16.5" height="27" preserveAspectRatio="none"/></g></g></g><g transform="translate(96 0)"><g transform="translate(0 -0.45)"><path d="M 10.9 31 L 21.1 31 L 21.244 44 L 18.144 44 L 16 35 L 13.856 44 L 10.756 44 Z" fill="url(#cloth)" stroke="#24344e" stroke-width="0.25" stroke-linecap="round" stroke-linejoin="round"/><path d="M 11.9 32 Q 11.9 34 13.9 35 M 20.1 32 Q 20.1 34 18.1 35" fill="none" stroke="#ddd" stroke-width="0.24" stroke-linecap="round" stroke-linejoin="round"/><path d="M 12.2 37 L 12.600000000000001 41.8 M 19.8 37 L 19.400000000000002 41.8" fill="none" stroke="#999" stroke-width="0.23" stroke-linecap="round" stroke-linejoin="round"/><defs><clipPath id="texture_5116"><path d="M 10.9 31 L 21.1 31 L 21.244 44 L 18.144 44 L 16 35 L 13.856 44 L 10.756 44 Z" fill="url(#cloth)" stroke="#24344e" stroke-width="0.25" stroke-linecap="round" stroke-linejoin="round"/><path d="M 11.9 32 Q 11.9 34 13.9 35 M 20.1 32 Q 20.1 34 18.1 35" fill="none" stroke="#ddd" stroke-width="0.24" stroke-linecap="round" stroke-linejoin="round"/><path d="M 12.2 37 L 12.600000000000001 41.8 M 19.8 37 L 19.400000000000002 41.8" fill="none" stroke="#999" stroke-width="0.23" stroke-linecap="round" stroke-linejoin="round"/></clipPath></defs><g clip-path="url(#texture_5116)"><image href="../components/clothing_courier_0.png" x="7.75" y="19" width="16.5" height="27" preserveAspectRatio="none"/></g></g></g><g transform="translate(0 48)"><g transform="translate(0 0)"><path d="M 13.7 31 L 19.6 31 L 19.6 44 L 16.5 44 L 16 35 L 16.799999999999997 44 L 13.7 44 Z" fill="url(#cloth)" stroke="#24344e" stroke-width="0.25" stroke-linecap="round" stroke-linejoin="round"/><path d="M 14.7 32 Q 14.7 34 16.7 35 M 18.6 32 Q 18.6 34 16.6 35" fill="none" stroke="#ddd" stroke-width="0.24" stroke-linecap="round" stroke-linejoin="round"/><path d="M 15.0 37 L 15.399999999999999 41.8 M 18.3 37 L 17.900000000000002 41.8" fill="none" stroke="#999" stroke-width="0.23" stroke-linecap="round" stroke-linejoin="round"/><defs><clipPath id="texture_5117"><path d="M 13.7 31 L 19.6 31 L 19.6 44 L 16.5 44 L 16 35 L 16.799999999999997 44 L 13.7 44 Z" fill="url(#cloth)" stroke="#24344e" stroke-width="0.25" stroke-linecap="round" stroke-linejoin="round"/><path d="M 14.7 32 Q 14.7 34 16.7 35 M 18.6 32 Q 18.6 34 16.6 35" fill="none" stroke="#ddd" stroke-width="0.24" stroke-linecap="round" stroke-linejoin="round"/><path d="M 15.0 37 L 15.399999999999999 41.8 M 18.3 37 L 17.900000000000002 41.8" fill="none" stroke="#999" stroke-width="0.23" stroke-linecap="round" stroke-linejoin="round"/></clipPath></defs><g clip-path="url(#texture_5117)"><image href="../components/clothing_courier_1.png" x="10.5" y="19" width="12.7" height="27" preserveAspectRatio="none"/></g></g></g><g transform="translate(32 48)"><g transform="translate(0 -0.45)"><path d="M 13.7 31 L 19.6 31 L 19.852 44 L 16.752 44 L 16 35 L 16.548 44 L 13.447999999999999 44 Z" fill="url(#cloth)" stroke="#24344e" stroke-width="0.25" stroke-linecap="round" stroke-linejoin="round"/><path d="M 14.7 32 Q 14.7 34 16.7 35 M 18.6 32 Q 18.6 34 16.6 35" fill="none" stroke="#ddd" stroke-width="0.24" stroke-linecap="round" stroke-linejoin="round"/><path d="M 15.0 37 L 15.399999999999999 41.8 M 18.3 37 L 17.900000000000002 41.8" fill="none" stroke="#999" stroke-width="0.23" stroke-linecap="round" stroke-linejoin="round"/><defs><clipPath id="texture_5118"><path d="M 13.7 31 L 19.6 31 L 19.852 44 L 16.752 44 L 16 35 L 16.548 44 L 13.447999999999999 44 Z" fill="url(#cloth)" stroke="#24344e" stroke-width="0.25" stroke-linecap="round" stroke-linejoin="round"/><path d="M 14.7 32 Q 14.7 34 16.7 35 M 18.6 32 Q 18.6 34 16.6 35" fill="none" stroke="#ddd" stroke-width="0.24" stroke-linecap="round" stroke-linejoin="round"/><path d="M 15.0 37 L 15.399999999999999 41.8 M 18.3 37 L 17.900000000000002 41.8" fill="none" stroke="#999" stroke-width="0.23" stroke-linecap="round" stroke-linejoin="round"/></clipPath></defs><g clip-path="url(#texture_5118)"><image href="../components/clothing_courier_1.png" x="10.5" y="19" width="12.7" height="27" preserveAspectRatio="none"/></g></g></g><g transform="translate(64 48)"><g transform="translate(0 0)"><path d="M 13.7 31 L 19.6 31 L 19.348000000000003 44 L 16.248 44 L 16 35 L 17.051999999999996 44 L 13.952 44 Z" fill="url(#cloth)" stroke="#24344e" stroke-width="0.25" stroke-linecap="round" stroke-linejoin="round"/><path d="M 14.7 32 Q 14.7 34 16.7 35 M 18.6 32 Q 18.6 34 16.6 35" fill="none" stroke="#ddd" stroke-width="0.24" stroke-linecap="round" stroke-linejoin="round"/><path d="M 15.0 37 L 15.399999999999999 41.8 M 18.3 37 L 17.900000000000002 41.8" fill="none" stroke="#999" stroke-width="0.23" stroke-linecap="round" stroke-linejoin="round"/><defs><clipPath id="texture_5119"><path d="M 13.7 31 L 19.6 31 L 19.348000000000003 44 L 16.248 44 L 16 35 L 17.051999999999996 44 L 13.952 44 Z" fill="url(#cloth)" stroke="#24344e" stroke-width="0.25" stroke-linecap="round" stroke-linejoin="round"/><path d="M 14.7 32 Q 14.7 34 16.7 35 M 18.6 32 Q 18.6 34 16.6 35" fill="none" stroke="#ddd" stroke-width="0.24" stroke-linecap="round" stroke-linejoin="round"/><path d="M 15.0 37 L 15.399999999999999 41.8 M 18.3 37 L 17.900000000000002 41.8" fill="none" stroke="#999" stroke-width="0.23" stroke-linecap="round" stroke-linejoin="round"/></clipPath></defs><g clip-path="url(#texture_5119)"><image href="../components/clothing_courier_1.png" x="10.5" y="19" width="12.7" height="27" preserveAspectRatio="none"/></g></g></g><g transform="translate(96 48)"><g transform="translate(0 -0.45)"><path d="M 13.7 31 L 19.6 31 L 19.744 44 L 16.644 44 L 16 35 L 16.656 44 L 13.556 44 Z" fill="url(#cloth)" stroke="#24344e" stroke-width="0.25" stroke-linecap="round" stroke-linejoin="round"/><path d="M 14.7 32 Q 14.7 34 16.7 35 M 18.6 32 Q 18.6 34 16.6 35" fill="none" stroke="#ddd" stroke-width="0.24" stroke-linecap="round" stroke-linejoin="round"/><path d="M 15.0 37 L 15.399999999999999 41.8 M 18.3 37 L 17.900000000000002 41.8" fill="none" stroke="#999" stroke-width="0.23" stroke-linecap="round" stroke-linejoin="round"/><defs><clipPath id="texture_5120"><path d="M 13.7 31 L 19.6 31 L 19.744 44 L 16.644 44 L 16 35 L 16.656 44 L 13.556 44 Z" fill="url(#cloth)" stroke="#24344e" stroke-width="0.25" stroke-linecap="round" stroke-linejoin="round"/><path d="M 14.7 32 Q 14.7 34 16.7 35 M 18.6 32 Q 18.6 34 16.6 35" fill="none" stroke="#ddd" stroke-width="0.24" stroke-linecap="round" stroke-linejoin="round"/><path d="M 15.0 37 L 15.399999999999999 41.8 M 18.3 37 L 17.900000000000002 41.8" fill="none" stroke="#999" stroke-width="0.23" stroke-linecap="round" stroke-linejoin="round"/></clipPath></defs><g clip-path="url(#texture_5120)"><image href="../components/clothing_courier_1.png" x="10.5" y="19" width="12.7" height="27" preserveAspectRatio="none"/></g></g></g><g transform="translate(0 96)"><g transform="translate(0 0)"><path d="M 10.9 31 L 21.1 31 L 21.1 44 L 18.0 44 L 16 35 L 14.0 44 L 10.9 44 Z" fill="url(#cloth)" stroke="#24344e" stroke-width="0.25" stroke-linecap="round" stroke-linejoin="round"/><path d="M 11.9 32 Q 11.9 34 13.9 35 M 20.1 32 Q 20.1 34 18.1 35" fill="none" stroke="#ddd" stroke-width="0.24" stroke-linecap="round" stroke-linejoin="round"/><path d="M 12.2 37 L 12.600000000000001 41.8 M 19.8 37 L 19.400000000000002 41.8" fill="none" stroke="#999" stroke-width="0.23" stroke-linecap="round" stroke-linejoin="round"/><defs><clipPath id="texture_5121"><path d="M 10.9 31 L 21.1 31 L 21.1 44 L 18.0 44 L 16 35 L 14.0 44 L 10.9 44 Z" fill="url(#cloth)" stroke="#24344e" stroke-width="0.25" stroke-linecap="round" stroke-linejoin="round"/><path d="M 11.9 32 Q 11.9 34 13.9 35 M 20.1 32 Q 20.1 34 18.1 35" fill="none" stroke="#ddd" stroke-width="0.24" stroke-linecap="round" stroke-linejoin="round"/><path d="M 12.2 37 L 12.600000000000001 41.8 M 19.8 37 L 19.400000000000002 41.8" fill="none" stroke="#999" stroke-width="0.23" stroke-linecap="round" stroke-linejoin="round"/></clipPath></defs><g clip-path="url(#texture_5121)"><image href="../components/clothing_courier_2.png" x="7.75" y="19" width="16.5" height="27" preserveAspectRatio="none"/></g></g></g><g transform="translate(32 96)"><g transform="translate(0 -0.45)"><path d="M 10.9 31 L 21.1 31 L 21.352 44 L 18.252 44 L 16 35 L 13.748 44 L 10.648 44 Z" fill="url(#cloth)" stroke="#24344e" stroke-width="0.25" stroke-linecap="round" stroke-linejoin="round"/><path d="M 11.9 32 Q 11.9 34 13.9 35 M 20.1 32 Q 20.1 34 18.1 35" fill="none" stroke="#ddd" stroke-width="0.24" stroke-linecap="round" stroke-linejoin="round"/><path d="M 12.2 37 L 12.600000000000001 41.8 M 19.8 37 L 19.400000000000002 41.8" fill="none" stroke="#999" stroke-width="0.23" stroke-linecap="round" stroke-linejoin="round"/><defs><clipPath id="texture_5122"><path d="M 10.9 31 L 21.1 31 L 21.352 44 L 18.252 44 L 16 35 L 13.748 44 L 10.648 44 Z" fill="url(#cloth)" stroke="#24344e" stroke-width="0.25" stroke-linecap="round" stroke-linejoin="round"/><path d="M 11.9 32 Q 11.9 34 13.9 35 M 20.1 32 Q 20.1 34 18.1 35" fill="none" stroke="#ddd" stroke-width="0.24" stroke-linecap="round" stroke-linejoin="round"/><path d="M 12.2 37 L 12.600000000000001 41.8 M 19.8 37 L 19.400000000000002 41.8" fill="none" stroke="#999" stroke-width="0.23" stroke-linecap="round" stroke-linejoin="round"/></clipPath></defs><g clip-path="url(#texture_5122)"><image href="../components/clothing_courier_2.png" x="7.75" y="19" width="16.5" height="27" preserveAspectRatio="none"/></g></g></g><g transform="translate(64 96)"><g transform="translate(0 0)"><path d="M 10.9 31 L 21.1 31 L 20.848000000000003 44 L 17.748 44 L 16 35 L 14.252 44 L 11.152000000000001 44 Z" fill="url(#cloth)" stroke="#24344e" stroke-width="0.25" stroke-linecap="round" stroke-linejoin="round"/><path d="M 11.9 32 Q 11.9 34 13.9 35 M 20.1 32 Q 20.1 34 18.1 35" fill="none" stroke="#ddd" stroke-width="0.24" stroke-linecap="round" stroke-linejoin="round"/><path d="M 12.2 37 L 12.600000000000001 41.8 M 19.8 37 L 19.400000000000002 41.8" fill="none" stroke="#999" stroke-width="0.23" stroke-linecap="round" stroke-linejoin="round"/><defs><clipPath id="texture_5123"><path d="M 10.9 31 L 21.1 31 L 20.848000000000003 44 L 17.748 44 L 16 35 L 14.252 44 L 11.152000000000001 44 Z" fill="url(#cloth)" stroke="#24344e" stroke-width="0.25" stroke-linecap="round" stroke-linejoin="round"/><path d="M 11.9 32 Q 11.9 34 13.9 35 M 20.1 32 Q 20.1 34 18.1 35" fill="none" stroke="#ddd" stroke-width="0.24" stroke-linecap="round" stroke-linejoin="round"/><path d="M 12.2 37 L 12.600000000000001 41.8 M 19.8 37 L 19.400000000000002 41.8" fill="none" stroke="#999" stroke-width="0.23" stroke-linecap="round" stroke-linejoin="round"/></clipPath></defs><g clip-path="url(#texture_5123)"><image href="../components/clothing_courier_2.png" x="7.75" y="19" width="16.5" height="27" preserveAspectRatio="none"/></g></g></g><g transform="translate(96 96)"><g transform="translate(0 -0.45)"><path d="M 10.9 31 L 21.1 31 L 21.244 44 L 18.144 44 L 16 35 L 13.856 44 L 10.756 44 Z" fill="url(#cloth)" stroke="#24344e" stroke-width="0.25" stroke-linecap="round" stroke-linejoin="round"/><path d="M 11.9 32 Q 11.9 34 13.9 35 M 20.1 32 Q 20.1 34 18.1 35" fill="none" stroke="#ddd" stroke-width="0.24" stroke-linecap="round" stroke-linejoin="round"/><path d="M 12.2 37 L 12.600000000000001 41.8 M 19.8 37 L 19.400000000000002 41.8" fill="none" stroke="#999" stroke-width="0.23" stroke-linecap="round" stroke-linejoin="round"/><defs><clipPath id="texture_5124"><path d="M 10.9 31 L 21.1 31 L 21.244 44 L 18.144 44 L 16 35 L 13.856 44 L 10.756 44 Z" fill="url(#cloth)" stroke="#24344e" stroke-width="0.25" stroke-linecap="round" stroke-linejoin="round"/><path d="M 11.9 32 Q 11.9 34 13.9 35 M 20.1 32 Q 20.1 34 18.1 35" fill="none" stroke="#ddd" stroke-width="0.24" stroke-linecap="round" stroke-linejoin="round"/><path d="M 12.2 37 L 12.600000000000001 41.8 M 19.8 37 L 19.400000000000002 41.8" fill="none" stroke="#999" stroke-width="0.23" stroke-linecap="round" stroke-linejoin="round"/></clipPath></defs><g clip-path="url(#texture_5124)"><image href="../components/clothing_courier_2.png" x="7.75" y="19" width="16.5" height="27" preserveAspectRatio="none"/></g></g></g></svg>