<svg xmlns="http://www.w3.org/2000/svg" width="512" height="576" viewBox="0 0 128 144"><defs>
 <linearGradient id="skin" x1="0" y1="0" x2="1" y2=".7"><stop stop-color="#ffffff"/><stop offset=".48" stop-color="#f3f3f3"/><stop offset="1" stop-color="#b9b9b9"/></linearGradient>
 <linearGradient id="hair" x1="0" y1="0" x2=".9" y2="1"><stop stop-color="#ffffff"/><stop offset=".33" stop-color="#dbdbdb"/><stop offset=".76" stop-color="#909090"/><stop offset="1" stop-color="#666666"/></linearGradient>
 <linearGradient id="cloth" x1="0" y1="0" x2="1" y2=".7"><stop stop-color="#eeeeee"/><stop offset=".4" stop-color="#bbbbbb"/><stop offset="1" stop-color="#717171"/></linearGradient>
 <linearGradient id="navy" x1="0" y1="0" x2="1" y2=".7"><stop stop-color="#50647d"/><stop offset=".5" stop-color="#344157"/><stop offset="1" stop-color="#1d293d"/></linearGradient>
 <linearGradient id="white" x1="0" y1="0" x2="1" y2="1"><stop stop-color="#faf8f3"/><stop offset=".65" stop-color="#dedfe4"/><stop offset="1" stop-color="#a9b6c8"/></linearGradient>
 <linearGradient id="denim" x1="0" y1="0" x2="1" y2=".6"><stop stop-color="#657896"/><stop offset=".5" stop-color="#3b526e"/><stop offset="1" stop-color="#23364e"/></linearGradient>
 <radialGradient id="iris"><stop stop-color="#d8d8d8"/><stop offset=".65" stop-color="#fafafa"/><stop offset="1" stop-color="#707070"/></radialGradient>
 <linearGradient id="leather" x1="0" y1="0" x2="1" y2=".8"><stop stop-color="#bd9870"/><stop offset=".4" stop-color="#96714e"/><stop offset="1" stop-color="#594636"/></linearGradient>
 </defs><g transform="translate(0 0)"><g transform="translate(0 0)"><path d="M 10.0 43 L 13.5 43 L 14.4 45 Q 14.5 46 10.1 46 L 9.7 45 Z" fill="#2b3443" stroke="#24344e" stroke-width="0.25" stroke-linecap="round" stroke-linejoin="round"/><path d="M 10.0 45.6 L 14.1 45.6" fill="none" stroke="#d8dce4" stroke-width="0.25" stroke-linecap="round" stroke-linejoin="round"/><path d="M 17.6 43 L 21.1 43 L 22.0 45 Q 22.1 46 17.700000000000003 46 L 17.3 45 Z" fill="#2b3443" stroke="#24344e" stroke-width="0.25" stroke-linecap="round" stroke-linejoin="round"/><path d="M 17.6 45.6 L 21.700000000000003 45.6" fill="none" stroke="#d8dce4" stroke-width="0.25" stroke-linecap="round" stroke-linejoin="round"/><defs><clipPath id="texture_721"><path d="M 10.0 43 L 13.5 43 L 14.4 45 Q 14.5 46 10.1 46 L 9.7 45 Z" fill="#2b3443" stroke="#24344e" stroke-width="0.25" stroke-linecap="round" stroke-linejoin="round"/><path d="M 10.0 45.6 L 14.1 45.6" fill="none" stroke="#d8dce4" stroke-width="0.25" stroke-linecap="round" stroke-linejoin="round"/><path d="M 17.6 43 L 21.1 43 L 22.0 45 Q 22.1 46 17.700000000000003 46 L 17.3 45 Z" fill="#2b3443" stroke="#24344e" stroke-width="0.25" stroke-linecap="round" stroke-linejoin="round"/><path d="M 17.6 45.6 L 21.700000000000003 45.6" fill="none" stroke="#d8dce4" stroke-width="0.25" stroke-linecap="round" stroke-linejoin="round"/></clipPath></defs><g clip-path="url(#texture_721)"><image href="../components/clothing_color_executive_0.png" x="7.75" y="19" width="16.5" height="27" preserveAspectRatio="none"/></g></g></g><g transform="translate(32 0)"><g transform="translate(0 -0.45)"><path d="M 9.1 43 L 12.6 43 L 13.5 45 Q 13.6 46 9.2 46 L 8.799999999999999 45 Z" fill="#2b3443" stroke="#24344e" stroke-width="0.25" stroke-linecap="round" stroke-linejoin="round"/><path d="M 9.1 45.6 L 13.2 45.6" fill="none" stroke="#d8dce4" stroke-width="0.25" stroke-linecap="round" stroke-linejoin="round"/><path d="M 18.5 43 L 22.0 43 L 22.9 45 Q 23.0 46 18.6 46 L 18.2 45 Z" fill="#2b3443" stroke="#24344e" stroke-width="0.25" stroke-linecap="round" stroke-linejoin="round"/><path d="M 18.5 45.6 L 22.6 45.6" fill="none" stroke="#d8dce4" stroke-width="0.25" stroke-linecap="round" stroke-linejoin="round"/><defs><clipPath id="texture_722"><path d="M 9.1 43 L 12.6 43 L 13.5 45 Q 13.6 46 9.2 46 L 8.799999999999999 45 Z" fill="#2b3443" stroke="#24344e" stroke-width="0.25" stroke-linecap="round" stroke-linejoin="round"/><path d="M 9.1 45.6 L 13.2 45.6" fill="none" stroke="#d8dce4" stroke-width="0.25" stroke-linecap="round" stroke-linejoin="round"/><path d="M 18.5 43 L 22.0 43 L 22.9 45 Q 23.0 46 18.6 46 L 18.2 45 Z" fill="#2b3443" stroke="#24344e" stroke-width="0.25" stroke-linecap="round" stroke-linejoin="round"/><path d="M 18.5 45.6 L 22.6 45.6" fill="none" stroke="#d8dce4" stroke-width="0.25" stroke-linecap="round" stroke-linejoin="round"/></clipPath></defs><g clip-path="url(#texture_722)"><image href="../components/clothing_color_executive_0.png" x="7.75" y="19" width="16.5" height="27" preserveAspectRatio="none"/></g></g></g><g transform="translate(64 0)"><g transform="translate(0 0)"><path d="M 10.0 43 L 13.5 43 L 14.4 45 Q 14.5 46 10.1 46 L 9.7 45 Z" fill="#2b3443" stroke="#24344e" stroke-width="0.25" stroke-linecap="round" stroke-linejoin="round"/><path d="M 10.0 45.6 L 14.1 45.6" fill="none" stroke="#d8dce4" stroke-width="0.25" stroke-linecap="round" stroke-linejoin="round"/><path d="M 17.6 43 L 21.1 43 L 22.0 45 Q 22.1 46 17.700000000000003 46 L 17.3 45 Z" fill="#2b3443" stroke="#24344e" stroke-width="0.25" stroke-linecap="round" stroke-linejoin="round"/><path d="M 17.6 45.6 L 21.700000000000003 45.6" fill="none" stroke="#d8dce4" stroke-width="0.25" stroke-linecap="round" stroke-linejoin="round"/><defs><clipPath id="texture_723"><path d="M 10.0 43 L 13.5 43 L 14.4 45 Q 14.5 46 10.1 46 L 9.7 45 Z" fill="#2b3443" stroke="#24344e" stroke-width="0.25" stroke-linecap="round" stroke-linejoin="round"/><path d="M 10.0 45.6 L 14.1 45.6" fill="none" stroke="#d8dce4" stroke-width="0.25" stroke-linecap="round" stroke-linejoin="round"/><path d="M 17.6 43 L 21.1 43 L 22.0 45 Q 22.1 46 17.700000000000003 46 L 17.3 45 Z" fill="#2b3443" stroke="#24344e" stroke-width="0.25" stroke-linecap="round" stroke-linejoin="round"/><path d="M 17.6 45.6 L 21.700000000000003 45.6" fill="none" stroke="#d8dce4" stroke-width="0.25" stroke-linecap="round" stroke-linejoin="round"/></clipPath></defs><g clip-path="url(#texture_723)"><image href="../components/clothing_color_executive_0.png" x="7.75" y="19" width="16.5" height="27" preserveAspectRatio="none"/></g></g></g><g transform="translate(96 0)"><g transform="translate(0 -0.45)"><path d="M 10.9 43 L 14.4 43 L 15.3 45 Q 15.4 46 11.0 46 L 10.6 45 Z" fill="#2b3443" stroke="#24344e" stroke-width="0.25" stroke-linecap="round" stroke-linejoin="round"/><path d="M 10.9 45.6 L 15.0 45.6" fill="none" stroke="#d8dce4" stroke-width="0.25" stroke-linecap="round" stroke-linejoin="round"/><path d="M 16.700000000000003 43 L 20.200000000000003 43 L 21.1 45 Q 21.200000000000003 46 16.800000000000004 46 L 16.400000000000002 45 Z" fill="#2b3443" stroke="#24344e" stroke-width="0.25" stroke-linecap="round" stroke-linejoin="round"/><path d="M 16.700000000000003 45.6 L 20.800000000000004 45.6" fill="none" stroke="#d8dce4" stroke-width="0.25" stroke-linecap="round" stroke-linejoin="round"/><defs><clipPath id="texture_724"><path d="M 10.9 43 L 14.4 43 L 15.3 45 Q 15.4 46 11.0 46 L 10.6 45 Z" fill="#2b3443" stroke="#24344e" stroke-width="0.25" stroke-linecap="round" stroke-linejoin="round"/><path d="M 10.9 45.6 L 15.0 45.6" fill="none" stroke="#d8dce4" stroke-width="0.25" stroke-linecap="round" stroke-linejoin="round"/><path d="M 16.700000000000003 43 L 20.200000000000003 43 L 21.1 45 Q 21.200000000000003 46 16.800000000000004 46 L 16.400000000000002 45 Z" fill="#2b3443" stroke="#24344e" stroke-width="0.25" stroke-linecap="round" stroke-linejoin="round"/><path d="M 16.700000000000003 45.6 L 20.800000000000004 45.6" fill="none" stroke="#d8dce4" stroke-width="0.25" stroke-linecap="round" stroke-linejoin="round"/></clipPath></defs><g clip-path="url(#texture_724)"><image href="../components/clothing_color_executive_0.png" x="7.75" y="19" width="16.5" height="27" preserveAspectRatio="none"/></g></g></g><g transform="translate(0 48)"><g transform="translate(0 0)"><path d="M 12.4 43 L 15.9 43 L 16.8 45 Q 16.9 46 12.5 46 L 12.1 45 Z" fill="#2b3443" stroke="#24344e" stroke-width="0.25" stroke-linecap="round" stroke-linejoin="round"/><path d="M 12.4 45.6 L 16.5 45.6" fill="none" stroke="#d8dce4" stroke-width="0.25" stroke-linecap="round" stroke-linejoin="round"/><path d="M 15.1 43 L 18.6 43 L 19.5 45 Q 19.6 46 15.2 46 L 14.799999999999999 45 Z" fill="#2b3443" stroke="#24344e" stroke-width="0.25" stroke-linecap="round" stroke-linejoin="round"/><path d="M 15.1 45.6 L 19.2 45.6" fill="none" stroke="#d8dce4" stroke-width="0.25" stroke-linecap="round" stroke-linejoin="round"/><defs><clipPath id="texture_725"><path d="M 12.4 43 L 15.9 43 L 16.8 45 Q 16.9 46 12.5 46 L 12.1 45 Z" fill="#2b3443" stroke="#24344e" stroke-width="0.25" stroke-linecap="round" stroke-linejoin="round"/><path d="M 12.4 45.6 L 16.5 45.6" fill="none" stroke="#d8dce4" stroke-width="0.25" stroke-linecap="round" stroke-linejoin="round"/><path d="M 15.1 43 L 18.6 43 L 19.5 45 Q 19.6 46 15.2 46 L 14.799999999999999 45 Z" fill="#2b3443" stroke="#24344e" stroke-width="0.25" stroke-linecap="round" stroke-linejoin="round"/><path d="M 15.1 45.6 L 19.2 45.6" fill="none" stroke="#d8dce4" stroke-width="0.25" stroke-linecap="round" stroke-linejoin="round"/></clipPath></defs><g clip-path="url(#texture_725)"><image href="../components/clothing_color_executive_1.png" x="10.5" y="19" width="12.7" height="27" preserveAspectRatio="none"/></g></g></g><g transform="translate(32 48)"><g transform="translate(0 -0.45)"><path d="M 9.9 43 L 13.4 43 L 14.3 45 Q 14.4 46 10.0 46 L 9.6 45 Z" fill="#2b3443" stroke="#24344e" stroke-width="0.25" stroke-linecap="round" stroke-linejoin="round"/><path d="M 9.9 45.6 L 14.0 45.6" fill="none" stroke="#d8dce4" stroke-width="0.25" stroke-linecap="round" stroke-linejoin="round"/><path d="M 17.6 43 L 21.1 43 L 22.0 45 Q 22.1 46 17.700000000000003 46 L 17.3 45 Z" fill="#2b3443" stroke="#24344e" stroke-width="0.25" stroke-linecap="round" stroke-linejoin="round"/><path d="M 17.6 45.6 L 21.700000000000003 45.6" fill="none" stroke="#d8dce4" stroke-width="0.25" stroke-linecap="round" stroke-linejoin="round"/><defs><clipPath id="texture_726"><path d="M 9.9 43 L 13.4 43 L 14.3 45 Q 14.4 46 10.0 46 L 9.6 45 Z" fill="#2b3443" stroke="#24344e" stroke-width="0.25" stroke-linecap="round" stroke-linejoin="round"/><path d="M 9.9 45.6 L 14.0 45.6" fill="none" stroke="#d8dce4" stroke-width="0.25" stroke-linecap="round" stroke-linejoin="round"/><path d="M 17.6 43 L 21.1 43 L 22.0 45 Q 22.1 46 17.700000000000003 46 L 17.3 45 Z" fill="#2b3443" stroke="#24344e" stroke-width="0.25" stroke-linecap="round" stroke-linejoin="round"/><path d="M 17.6 45.6 L 21.700000000000003 45.6" fill="none" stroke="#d8dce4" stroke-width="0.25" stroke-linecap="round" stroke-linejoin="round"/></clipPath></defs><g clip-path="url(#texture_726)"><image href="../components/clothing_color_executive_1.png" x="10.5" y="19" width="12.7" height="27" preserveAspectRatio="none"/></g></g></g><g transform="translate(64 48)"><g transform="translate(0 0)"><path d="M 12.4 43 L 15.9 43 L 16.8 45 Q 16.9 46 12.5 46 L 12.1 45 Z" fill="#2b3443" stroke="#24344e" stroke-width="0.25" stroke-linecap="round" stroke-linejoin="round"/><path d="M 12.4 45.6 L 16.5 45.6" fill="none" stroke="#d8dce4" stroke-width="0.25" stroke-linecap="round" stroke-linejoin="round"/><path d="M 15.1 43 L 18.6 43 L 19.5 45 Q 19.6 46 15.2 46 L 14.799999999999999 45 Z" fill="#2b3443" stroke="#24344e" stroke-width="0.25" stroke-linecap="round" stroke-linejoin="round"/><path d="M 15.1 45.6 L 19.2 45.6" fill="none" stroke="#d8dce4" stroke-width="0.25" stroke-linecap="round" stroke-linejoin="round"/><defs><clipPath id="texture_727"><path d="M 12.4 43 L 15.9 43 L 16.8 45 Q 16.9 46 12.5 46 L 12.1 45 Z" fill="#2b3443" stroke="#24344e" stroke-width="0.25" stroke-linecap="round" stroke-linejoin="round"/><path d="M 12.4 45.6 L 16.5 45.6" fill="none" stroke="#d8dce4" stroke-width="0.25" stroke-linecap="round" stroke-linejoin="round"/><path d="M 15.1 43 L 18.6 43 L 19.5 45 Q 19.6 46 15.2 46 L 14.799999999999999 45 Z" fill="#2b3443" stroke="#24344e" stroke-width="0.25" stroke-linecap="round" stroke-linejoin="round"/><path d="M 15.1 45.6 L 19.2 45.6" fill="none" stroke="#d8dce4" stroke-width="0.25" stroke-linecap="round" stroke-linejoin="round"/></clipPath></defs><g clip-path="url(#texture_727)"><image href="../components/clothing_color_executive_1.png" x="10.5" y="19" width="12.7" height="27" preserveAspectRatio="none"/></g></g></g><g transform="translate(96 48)"><g transform="translate(0 -0.45)"><path d="M 14.9 43 L 18.4 43 L 19.3 45 Q 19.4 46 15.0 46 L 14.6 45 Z" fill="#2b3443" stroke="#24344e" stroke-width="0.25" stroke-linecap="round" stroke-linejoin="round"/><path d="M 14.9 45.6 L 19.0 45.6" fill="none" stroke="#d8dce4" stroke-width="0.25" stroke-linecap="round" stroke-linejoin="round"/><path d="M 12.6 43 L 16.1 43 L 17.0 45 Q 17.1 46 12.7 46 L 12.299999999999999 45 Z" fill="#2b3443" stroke="#24344e" stroke-width="0.25" stroke-linecap="round" stroke-linejoin="round"/><path d="M 12.6 45.6 L 16.7 45.6" fill="none" stroke="#d8dce4" stroke-width="0.25" stroke-linecap="round" stroke-linejoin="round"/><defs><clipPath id="texture_728"><path d="M 14.9 43 L 18.4 43 L 19.3 45 Q 19.4 46 15.0 46 L 14.6 45 Z" fill="#2b3443" stroke="#24344e" stroke-width="0.25" stroke-linecap="round" stroke-linejoin="round"/><path d="M 14.9 45.6 L 19.0 45.6" fill="none" stroke="#d8dce4" stroke-width="0.25" stroke-linecap="round" stroke-linejoin="round"/><path d="M 12.6 43 L 16.1 43 L 17.0 45 Q 17.1 46 12.7 46 L 12.299999999999999 45 Z" fill="#2b3443" stroke="#24344e" stroke-width="0.25" stroke-linecap="round" stroke-linejoin="round"/><path d="M 12.6 45.6 L 16.7 45.6" fill="none" stroke="#d8dce4" stroke-width="0.25" stroke-linecap="round" stroke-linejoin="round"/></clipPath></defs><g clip-path="url(#texture_728)"><image href="../components/clothing_color_executive_1.png" x="10.5" y="19" width="12.7" height="27" preserveAspectRatio="none"/></g></g></g><g transform="translate(0 96)"><g transform="translate(0 0)"><path d="M 10.0 43 L 13.5 43 L 14.4 45 Q 14.5 46 10.1 46 L 9.7 45 Z" fill="#2b3443" stroke="#24344e" stroke-width="0.25" stroke-linecap="round" stroke-linejoin="round"/><path d="M 10.0 45.6 L 14.1 45.6" fill="none" stroke="#d8dce4" stroke-width="0.25" stroke-linecap="round" stroke-linejoin="round"/><path d="M 17.6 43 L 21.1 43 L 22.0 45 Q 22.1 46 17.700000000000003 46 L 17.3 45 Z" fill="#2b3443" stroke="#24344e" stroke-width="0.25" stroke-linecap="round" stroke-linejoin="round"/><path d="M 17.6 45.6 L 21.700000000000003 45.6" fill="none" stroke="#d8dce4" stroke-width="0.25" stroke-linecap="round" stroke-linejoin="round"/><defs><clipPath id="texture_729"><path d="M 10.0 43 L 13.5 43 L 14.4 45 Q 14.5 46 10.1 46 L 9.7 45 Z" fill="#2b3443" stroke="#24344e" stroke-width="0.25" stroke-linecap="round" stroke-linejoin="round"/><path d="M 10.0 45.6 L 14.1 45.6" fill="none" stroke="#d8dce4" stroke-width="0.25" stroke-linecap="round" stroke-linejoin="round"/><path d="M 17.6 43 L 21.1 43 L 22.0 45 Q 22.1 46 17.700000000000003 46 L 17.3 45 Z" fill="#2b3443" stroke="#24344e" stroke-width="0.25" stroke-linecap="round" stroke-linejoin="round"/><path d="M 17.6 45.6 L 21.700000000000003 45.6" fill="none" stroke="#d8dce4" stroke-width="0.25" stroke-linecap="round" stroke-linejoin="round"/></clipPath></defs><g clip-path="url(#texture_729)"><image href="../components/clothing_color_executive_2.png" x="7.75" y="19" width="16.5" height="27" preserveAspectRatio="none"/></g></g></g><g transform="translate(32 96)"><g transform="translate(0 -0.45)"><path d="M 9.1 43 L 12.6 43 L 13.5 45 Q 13.6 46 9.2 46 L 8.799999999999999 45 Z" fill="#2b3443" stroke="#24344e" stroke-width="0.25" stroke-linecap="round" stroke-linejoin="round"/><path d="M 9.1 45.6 L 13.2 45.6" fill="none" stroke="#d8dce4" stroke-width="0.25" stroke-linecap="round" stroke-linejoin="round"/><path d="M 18.5 43 L 22.0 43 L 22.9 45 Q 23.0 46 18.6 46 L 18.2 45 Z" fill="#2b3443" stroke="#24344e" stroke-width="0.25" stroke-linecap="round" stroke-linejoin="round"/><path d="M 18.5 45.6 L 22.6 45.6" fill="none" stroke="#d8dce4" stroke-width="0.25" stroke-linecap="round" stroke-linejoin="round"/><defs><clipPath id="texture_730"><path d="M 9.1 43 L 12.6 43 L 13.5 45 Q 13.6 46 9.2 46 L 8.799999999999999 45 Z" fill="#2b3443" stroke="#24344e" stroke-width="0.25" stroke-linecap="round" stroke-linejoin="round"/><path d="M 9.1 45.6 L 13.2 45.6" fill="none" stroke="#d8dce4" stroke-width="0.25" stroke-linecap="round" stroke-linejoin="round"/><path d="M 18.5 43 L 22.0 43 L 22.9 45 Q 23.0 46 18.6 46 L 18.2 45 Z" fill="#2b3443" stroke="#24344e" stroke-width="0.25" stroke-linecap="round" stroke-linejoin="round"/><path d="M 18.5 45.6 L 22.6 45.6" fill="none" stroke="#d8dce4" stroke-width="0.25" stroke-linecap="round" stroke-linejoin="round"/></clipPath></defs><g clip-path="url(#texture_730)"><image href="../components/clothing_color_executive_2.png" x="7.75" y="19" width="16.5" height="27" preserveAspectRatio="none"/></g></g></g><g transform="translate(64 96)"><g transform="translate(0 0)"><path d="M 10.0 43 L 13.5 43 L 14.4 45 Q 14.5 46 10.1 46 L 9.7 45 Z" fill="#2b3443" stroke="#24344e" stroke-width="0.25" stroke-linecap="round" stroke-linejoin="round"/><path d="M 10.0 45.6 L 14.1 45.6" fill="none" stroke="#d8dce4" stroke-width="0.25" stroke-linecap="round" stroke-linejoin="round"/><path d="M 17.6 43 L 21.1 43 L 22.0 45 Q 22.1 46 17.700000000000003 46 L 17.3 45 Z" fill="#2b3443" stroke="#24344e" stroke-width="0.25" stroke-linecap="round" stroke-linejoin="round"/><path d="M 17.6 45.6 L 21.700000000000003 45.6" fill="none" stroke="#d8dce4" stroke-width="0.25" stroke-linecap="round" stroke-linejoin="round"/><defs><clipPath id="texture_731"><path d="M 10.0 43 L 13.5 43 L 14.4 45 Q 14.5 46 10.1 46 L 9.7 45 Z" fill="#2b3443" stroke="#24344e" stroke-width="0.25" stroke-linecap="round" stroke-linejoin="round"/><path d="M 10.0 45.6 L 14.1 45.6" fill="none" stroke="#d8dce4" stroke-width="0.25" stroke-linecap="round" stroke-linejoin="round"/><path d="M 17.6 43 L 21.1 43 L 22.0 45 Q 22.1 46 17.700000000000003 46 L 17.3 45 Z" fill="#2b3443" stroke="#24344e" stroke-width="0.25" stroke-linecap="round" stroke-linejoin="round"/><path d="M 17.6 45.6 L 21.700000000000003 45.6" fill="none" stroke="#d8dce4" stroke-width="0.25" stroke-linecap="round" stroke-linejoin="round"/></clipPath></defs><g clip-path="url(#texture_731)"><image href="../components/clothing_color_executive_2.png" x="7.75" y="19" width="16.5" height="27" preserveAspectRatio="none"/></g></g></g><g transform="translate(96 96)"><g transform="translate(0 -0.45)"><path d="M 10.9 43 L 14.4 43 L 15.3 45 Q 15.4 46 11.0 46 L 10.6 45 Z" fill="#2b3443" stroke="#24344e" stroke-width="0.25" stroke-linecap="round" stroke-linejoin="round"/><path d="M 10.9 45.6 L 15.0 45.6" fill="none" stroke="#d8dce4" stroke-width="0.25" stroke-linecap="round" stroke-linejoin="round"/><path d="M 16.700000000000003 43 L 20.200000000000003 43 L 21.1 45 Q 21.200000000000003 46 16.800000000000004 46 L 16.400000000000002 45 Z" fill="#2b3443" stroke="#24344e" stroke-width="0.25" stroke-linecap="round" stroke-linejoin="round"/><path d="M 16.700000000000003 45.6 L 20.800000000000004 45.6" fill="none" stroke="#d8dce4" stroke-width="0.25" stroke-linecap="round" stroke-linejoin="round"/><defs><clipPath id="texture_732"><path d="M 10.9 43 L 14.4 43 L 15.3 45 Q 15.4 46 11.0 46 L 10.6 45 Z" fill="#2b3443" stroke="#24344e" stroke-width="0.25" stroke-linecap="round" stroke-linejoin="round"/><path d="M 10.9 45.6 L 15.0 45.6" fill="none" stroke="#d8dce4" stroke-width="0.25" stroke-linecap="round" stroke-linejoin="round"/><path d="M 16.700000000000003 43 L 20.200000000000003 43 L 21.1 45 Q 21.200000000000003 46 16.800000000000004 46 L 16.400000000000002 45 Z" fill="#2b3443" stroke="#24344e" stroke-width="0.25" stroke-linecap="round" stroke-linejoin="round"/><path d="M 16.700000000000003 45.6 L 20.800000000000004 45.6" fill="none" stroke="#d8dce4" stroke-width="0.25" stroke-linecap="round" stroke-linejoin="round"/></clipPath></defs><g clip-path="url(#texture_732)"><image href="../components/clothing_color_executive_2.png" x="7.75" y="19" width="16.5" height="27" preserveAspectRatio="none"/></g></g></g></svg>