<svg xmlns="http://www.w3.org/2000/svg" width="512" height="576" viewBox="0 0 128 144"><defs>
 <linearGradient id="skin" x1="0" y1="0" x2="1" y2=".7"><stop stop-color="#ffffff"/><stop offset=".48" stop-color="#f3f3f3"/><stop offset="1" stop-color="#b9b9b9"/></linearGradient>
 <linearGradient id="hair" x1="0" y1="0" x2=".9" y2="1"><stop stop-color="#ffffff"/><stop offset=".33" stop-color="#dbdbdb"/><stop offset=".76" stop-color="#909090"/><stop offset="1" stop-color="#666666"/></linearGradient>
 <linearGradient id="cloth" x1="0" y1="0" x2="1" y2=".7"><stop stop-color="#eeeeee"/><stop offset=".4" stop-color="#bbbbbb"/><stop offset="1" stop-color="#717171"/></linearGradient>
 <linearGradient id="navy" x1="0" y1="0" x2="1" y2=".7"><stop stop-color="#50647d"/><stop offset=".5" stop-color="#344157"/><stop offset="1" stop-color="#1d293d"/></linearGradient>
 <linearGradient id="white" x1="0" y1="0" x2="1" y2="1"><stop stop-color="#faf8f3"/><stop offset=".65" stop-color="#dedfe4"/><stop offset="1" stop-color="#a9b6c8"/></linearGradient>
 <linearGradient id="denim" x1="0" y1="0" x2="1" y2=".6"><stop stop-color="#657896"/><stop offset=".5" stop-color="#3b526e"/><stop offset="1" stop-color="#23364e"/></linearGradient>
 <radialGradient id="iris"><stop stop-color="#d8d8d8"/><stop offset=".65" stop-color="#fafafa"/><stop offset="1" stop-color="#707070"/></radialGradient>
 <linearGradient id="leather" x1="0" y1="0" x2="1" y2=".8"><stop stop-color="#bd9870"/><stop offset=".4" stop-color="#96714e"/><stop offset="1" stop-color="#594636"/></linearGradient>
 </defs><g transform="translate(0 0)"><g transform="translate(0 0)"><path d="M 10.9 31 L 21.1 31 L 21.1 44 L 18.0 44 L 16 35 L 14.0 44 L 10.9 44 Z" fill="url(#cloth)" stroke="#24344e" stroke-width="0.25" stroke-linecap="round" stroke-linejoin="round"/><path d="M 11.9 32 Q 11.9 34 13.9 35 M 20.1 32 Q 20.1 34 18.1 35" fill="none" stroke="#ddd" stroke-width="0.24" stroke-linecap="round" stroke-linejoin="round"/><path d="M 12.2 37 L 12.600000000000001 41.8 M 19.8 37 L 19.400000000000002 41.8" fill="none" stroke="#999" stroke-width="0.23" stroke-linecap="round" stroke-linejoin="round"/><defs><clipPath id="texture_1551"><path d="M 10.9 31 L 21.1 31 L 21.1 44 L 18.0 44 L 16 35 L 14.0 44 L 10.9 44 Z" fill="url(#cloth)" stroke="#24344e" stroke-width="0.25" stroke-linecap="round" stroke-linejoin="round"/><path d="M 11.9 32 Q 11.9 34 13.9 35 M 20.1 32 Q 20.1 34 18.1 35" fill="none" stroke="#ddd" stroke-width="0.24" stroke-linecap="round" stroke-linejoin="round"/><path d="M 12.2 37 L 12.600000000000001 41.8 M 19.8 37 L 19.400000000000002 41.8" fill="none" stroke="#999" stroke-width="0.23" stroke-linecap="round" stroke-linejoin="round"/></clipPath></defs><g clip-path="url(#texture_1551)"><image href="../components/clothing_luxury_citywear_0.png" x="7.75" y="19" width="16.5" height="27" preserveAspectRatio="none"/></g></g></g><g transform="translate(32 0)"><g transform="translate(0 -0.18)"><path d="M 10.9 31 L 21.1 31 L 21.1 44 L 18.0 44 L 16 35 L 14.0 44 L 10.9 44 Z" fill="url(#cloth)" stroke="#24344e" stroke-width="0.25" stroke-linecap="round" stroke-linejoin="round"/><path d="M 11.9 32 Q 11.9 34 13.9 35 M 20.1 32 Q 20.1 34 18.1 35" fill="none" stroke="#ddd" stroke-width="0.24" stroke-linecap="round" stroke-linejoin="round"/><path d="M 12.2 37 L 12.600000000000001 41.8 M 19.8 37 L 19.400000000000002 41.8" fill="none" stroke="#999" stroke-width="0.23" stroke-linecap="round" stroke-linejoin="round"/><defs><clipPath id="texture_1552"><path d="M 10.9 31 L 21.1 31 L 21.1 44 L 18.0 44 L 16 35 L 14.0 44 L 10.9 44 Z" fill="url(#cloth)" stroke="#24344e" stroke-width="0.25" stroke-linecap="round" stroke-linejoin="round"/><path d="M 11.9 32 Q 11.9 34 13.9 35 M 20.1 32 Q 20.1 34 18.1 35" fill="none" stroke="#ddd" stroke-width="0.24" stroke-linecap="round" stroke-linejoin="round"/><path d="M 12.2 37 L 12.600000000000001 41.8 M 19.8 37 L 19.400000000000002 41.8" fill="none" stroke="#999" stroke-width="0.23" stroke-linecap="round" stroke-linejoin="round"/></clipPath></defs><g clip-path="url(#texture_1552)"><image href="../components/clothing_luxury_citywear_0.png" x="7.75" y="19" width="16.5" height="27" preserveAspectRatio="none"/></g></g></g><g transform="translate(64 0)"><g transform="translate(0 0)"><path d="M 10.9 31 L 21.1 31 L 21.1 44 L 18.0 44 L 16 35 L 14.0 44 L 10.9 44 Z" fill="url(#cloth)" stroke="#24344e" stroke-width="0.25" stroke-linecap="round" stroke-linejoin="round"/><path d="M 11.9 32 Q 11.9 34 13.9 35 M 20.1 32 Q 20.1 34 18.1 35" fill="none" stroke="#ddd" stroke-width="0.24" stroke-linecap="round" stroke-linejoin="round"/><path d="M 12.2 37 L 12.600000000000001 41.8 M 19.8 37 L 19.400000000000002 41.8" fill="none" stroke="#999" stroke-width="0.23" stroke-linecap="round" stroke-linejoin="round"/><defs><clipPath id="texture_1553"><path d="M 10.9 31 L 21.1 31 L 21.1 44 L 18.0 44 L 16 35 L 14.0 44 L 10.9 44 Z" fill="url(#cloth)" stroke="#24344e" stroke-width="0.25" stroke-linecap="round" stroke-linejoin="round"/><path d="M 11.9 32 Q 11.9 34 13.9 35 M 20.1 32 Q 20.1 34 18.1 35" fill="none" stroke="#ddd" stroke-width="0.24" stroke-linecap="round" stroke-linejoin="round"/><path d="M 12.2 37 L 12.600000000000001 41.8 M 19.8 37 L 19.400000000000002 41.8" fill="none" stroke="#999" stroke-width="0.23" stroke-linecap="round" stroke-linejoin="round"/></clipPath></defs><g clip-path="url(#texture_1553)"><image href="../components/clothing_luxury_citywear_0.png" x="7.75" y="19" width="16.5" height="27" preserveAspectRatio="none"/></g></g></g><g transform="translate(96 0)"><g transform="translate(0 -0.18)"><path d="M 10.9 31 L 21.1 31 L 21.1 44 L 18.0 44 L 16 35 L 14.0 44 L 10.9 44 Z" fill="url(#cloth)" stroke="#24344e" stroke-width="0.25" stroke-linecap="round" stroke-linejoin="round"/><path d="M 11.9 32 Q 11.9 34 13.9 35 M 20.1 32 Q 20.1 34 18.1 35" fill="none" stroke="#ddd" stroke-width="0.24" stroke-linecap="round" stroke-linejoin="round"/><path d="M 12.2 37 L 12.600000000000001 41.8 M 19.8 37 L 19.400000000000002 41.8" fill="none" stroke="#999" stroke-width="0.23" stroke-linecap="round" stroke-linejoin="round"/><defs><clipPath id="texture_1554"><path d="M 10.9 31 L 21.1 31 L 21.1 44 L 18.0 44 L 16 35 L 14.0 44 L 10.9 44 Z" fill="url(#cloth)" stroke="#24344e" stroke-width="0.25" stroke-linecap="round" stroke-linejoin="round"/><path d="M 11.9 32 Q 11.9 34 13.9 35 M 20.1 32 Q 20.1 34 18.1 35" fill="none" stroke="#ddd" stroke-width="0.24" stroke-linecap="round" stroke-linejoin="round"/><path d="M 12.2 37 L 12.600000000000001 41.8 M 19.8 37 L 19.400000000000002 41.8" fill="none" stroke="#999" stroke-width="0.23" stroke-linecap="round" stroke-linejoin="round"/></clipPath></defs><g clip-path="url(#texture_1554)"><image href="../components/clothing_luxury_citywear_0.png" x="7.75" y="19" width="16.5" height="27" preserveAspectRatio="none"/></g></g></g><g transform="translate(0 48)"><g transform="translate(0 0)"><path d="M 13.7 31 L 19.6 31 L 19.6 44 L 16.5 44 L 16 35 L 16.799999999999997 44 L 13.7 44 Z" fill="url(#cloth)" stroke="#24344e" stroke-width="0.25" stroke-linecap="round" stroke-linejoin="round"/><path d="M 14.7 32 Q 14.7 34 16.7 35 M 18.6 32 Q 18.6 34 16.6 35" fill="none" stroke="#ddd" stroke-width="0.24" stroke-linecap="round" stroke-linejoin="round"/><path d="M 15.0 37 L 15.399999999999999 41.8 M 18.3 37 L 17.900000000000002 41.8" fill="none" stroke="#999" stroke-width="0.23" stroke-linecap="round" stroke-linejoin="round"/><defs><clipPath id="texture_1555"><path d="M 13.7 31 L 19.6 31 L 19.6 44 L 16.5 44 L 16 35 L 16.799999999999997 44 L 13.7 44 Z" fill="url(#cloth)" stroke="#24344e" stroke-width="0.25" stroke-linecap="round" stroke-linejoin="round"/><path d="M 14.7 32 Q 14.7 34 16.7 35 M 18.6 32 Q 18.6 34 16.6 35" fill="none" stroke="#ddd" stroke-width="0.24" stroke-linecap="round" stroke-linejoin="round"/><path d="M 15.0 37 L 15.399999999999999 41.8 M 18.3 37 L 17.900000000000002 41.8" fill="none" stroke="#999" stroke-width="0.23" stroke-linecap="round" stroke-linejoin="round"/></clipPath></defs><g clip-path="url(#texture_1555)"><image href="../components/clothing_luxury_citywear_1.png" x="10.5" y="19" width="12.7" height="27" preserveAspectRatio="none"/></g></g></g><g transform="translate(32 48)"><g transform="translate(0 -0.18)"><path d="M 13.7 31 L 19.6 31 L 19.6 44 L 16.5 44 L 16 35 L 16.799999999999997 44 L 13.7 44 Z" fill="url(#cloth)" stroke="#24344e" stroke-width="0.25" stroke-linecap="round" stroke-linejoin="round"/><path d="M 14.7 32 Q 14.7 34 16.7 35 M 18.6 32 Q 18.6 34 16.6 35" fill="none" stroke="#ddd" stroke-width="0.24" stroke-linecap="round" stroke-linejoin="round"/><path d="M 15.0 37 L 15.399999999999999 41.8 M 18.3 37 L 17.900000000000002 41.8" fill="none" stroke="#999" stroke-width="0.23" stroke-linecap="round" stroke-linejoin="round"/><defs><clipPath id="texture_1556"><path d="M 13.7 31 L 19.6 31 L 19.6 44 L 16.5 44 L 16 35 L 16.799999999999997 44 L 13.7 44 Z" fill="url(#cloth)" stroke="#24344e" stroke-width="0.25" stroke-linecap="round" stroke-linejoin="round"/><path d="M 14.7 32 Q 14.7 34 16.7 35 M 18.6 32 Q 18.6 34 16.6 35" fill="none" stroke="#ddd" stroke-width="0.24" stroke-linecap="round" stroke-linejoin="round"/><path d="M 15.0 37 L 15.399999999999999 41.8 M 18.3 37 L 17.900000000000002 41.8" fill="none" stroke="#999" stroke-width="0.23" stroke-linecap="round" stroke-linejoin="round"/></clipPath></defs><g clip-path="url(#texture_1556)"><image href="../components/clothing_luxury_citywear_1.png" x="10.5" y="19" width="12.7" height="27" preserveAspectRatio="none"/></g></g></g><g transform="translate(64 48)"><g transform="translate(0 0)"><path d="M 13.7 31 L 19.6 31 L 19.6 44 L 16.5 44 L 16 35 L 16.799999999999997 44 L 13.7 44 Z" fill="url(#cloth)" stroke="#24344e" stroke-width="0.25" stroke-linecap="round" stroke-linejoin="round"/><path d="M 14.7 32 Q 14.7 34 16.7 35 M 18.6 32 Q 18.6 34 16.6 35" fill="none" stroke="#ddd" stroke-width="0.24" stroke-linecap="round" stroke-linejoin="round"/><path d="M 15.0 37 L 15.399999999999999 41.8 M 18.3 37 L 17.900000000000002 41.8" fill="none" stroke="#999" stroke-width="0.23" stroke-linecap="round" stroke-linejoin="round"/><defs><clipPath id="texture_1557"><path d="M 13.7 31 L 19.6 31 L 19.6 44 L 16.5 44 L 16 35 L 16.799999999999997 44 L 13.7 44 Z" fill="url(#cloth)" stroke="#24344e" stroke-width="0.25" stroke-linecap="round" stroke-linejoin="round"/><path d="M 14.7 32 Q 14.7 34 16.7 35 M 18.6 32 Q 18.6 34 16.6 35" fill="none" stroke="#ddd" stroke-width="0.24" stroke-linecap="round" stroke-linejoin="round"/><path d="M 15.0 37 L 15.399999999999999 41.8 M 18.3 37 L 17.900000000000002 41.8" fill="none" stroke="#999" stroke-width="0.23" stroke-linecap="round" stroke-linejoin="round"/></clipPath></defs><g clip-path="url(#texture_1557)"><image href="../components/clothing_luxury_citywear_1.png" x="10.5" y="19" width="12.7" height="27" preserveAspectRatio="none"/></g></g></g><g transform="translate(96 48)"><g transform="translate(0 -0.18)"><path d="M 13.7 31 L 19.6 31 L 19.6 44 L 16.5 44 L 16 35 L 16.799999999999997 44 L 13.7 44 Z" fill="url(#cloth)" stroke="#24344e" stroke-width="0.25" stroke-linecap="round" stroke-linejoin="round"/><path d="M 14.7 32 Q 14.7 34 16.7 35 M 18.6 32 Q 18.6 34 16.6 35" fill="none" stroke="#ddd" stroke-width="0.24" stroke-linecap="round" stroke-linejoin="round"/><path d="M 15.0 37 L 15.399999999999999 41.8 M 18.3 37 L 17.900000000000002 41.8" fill="none" stroke="#999" stroke-width="0.23" stroke-linecap="round" stroke-linejoin="round"/><defs><clipPath id="texture_1558"><path d="M 13.7 31 L 19.6 31 L 19.6 44 L 16.5 44 L 16 35 L 16.799999999999997 44 L 13.7 44 Z" fill="url(#cloth)" stroke="#24344e" stroke-width="0.25" stroke-linecap="round" stroke-linejoin="round"/><path d="M 14.7 32 Q 14.7 34 16.7 35 M 18.6 32 Q 18.6 34 16.6 35" fill="none" stroke="#ddd" stroke-width="0.24" stroke-linecap="round" stroke-linejoin="round"/><path d="M 15.0 37 L 15.399999999999999 41.8 M 18.3 37 L 17.900000000000002 41.8" fill="none" stroke="#999" stroke-width="0.23" stroke-linecap="round" stroke-linejoin="round"/></clipPath></defs><g clip-path="url(#texture_1558)"><image href="../components/clothing_luxury_citywear_1.png" x="10.5" y="19" width="12.7" height="27" preserveAspectRatio="none"/></g></g></g><g transform="translate(0 96)"><g transform="translate(0 0)"><path d="M 10.9 31 L 21.1 31 L 21.1 44 L 18.0 44 L 16 35 L 14.0 44 L 10.9 44 Z" fill="url(#cloth)" stroke="#24344e" stroke-width="0.25" stroke-linecap="round" stroke-linejoin="round"/><path d="M 11.9 32 Q 11.9 34 13.9 35 M 20.1 32 Q 20.1 34 18.1 35" fill="none" stroke="#ddd" stroke-width="0.24" stroke-linecap="round" stroke-linejoin="round"/><path d="M 12.2 37 L 12.600000000000001 41.8 M 19.8 37 L 19.400000000000002 41.8" fill="none" stroke="#999" stroke-width="0.23" stroke-linecap="round" stroke-linejoin="round"/><defs><clipPath id="texture_1559"><path d="M 10.9 31 L 21.1 31 L 21.1 44 L 18.0 44 L 16 35 L 14.0 44 L 10.9 44 Z" fill="url(#cloth)" stroke="#24344e" stroke-width="0.25" stroke-linecap="round" stroke-linejoin="round"/><path d="M 11.9 32 Q 11.9 34 13.9 35 M 20.1 32 Q 20.1 34 18.1 35" fill="none" stroke="#ddd" stroke-width="0.24" stroke-linecap="round" stroke-linejoin="round"/><path d="M 12.2 37 L 12.600000000000001 41.8 M 19.8 37 L 19.400000000000002 41.8" fill="none" stroke="#999" stroke-width="0.23" stroke-linecap="round" stroke-linejoin="round"/></clipPath></defs><g clip-path="url(#texture_1559)"><image href="../components/clothing_luxury_citywear_2.png" x="7.75" y="19" width="16.5" height="27" preserveAspectRatio="none"/></g></g></g><g transform="translate(32 96)"><g transform="translate(0 -0.18)"><path d="M 10.9 31 L 21.1 31 L 21.1 44 L 18.0 44 L 16 35 L 14.0 44 L 10.9 44 Z" fill="url(#cloth)" stroke="#24344e" stroke-width="0.25" stroke-linecap="round" stroke-linejoin="round"/><path d="M 11.9 32 Q 11.9 34 13.9 35 M 20.1 32 Q 20.1 34 18.1 35" fill="none" stroke="#ddd" stroke-width="0.24" stroke-linecap="round" stroke-linejoin="round"/><path d="M 12.2 37 L 12.600000000000001 41.8 M 19.8 37 L 19.400000000000002 41.8" fill="none" stroke="#999" stroke-width="0.23" stroke-linecap="round" stroke-linejoin="round"/><defs><clipPath id="texture_1560"><path d="M 10.9 31 L 21.1 31 L 21.1 44 L 18.0 44 L 16 35 L 14.0 44 L 10.9 44 Z" fill="url(#cloth)" stroke="#24344e" stroke-width="0.25" stroke-linecap="round" stroke-linejoin="round"/><path d="M 11.9 32 Q 11.9 34 13.9 35 M 20.1 32 Q 20.1 34 18.1 35" fill="none" stroke="#ddd" stroke-width="0.24" stroke-linecap="round" stroke-linejoin="round"/><path d="M 12.2 37 L 12.600000000000001 41.8 M 19.8 37 L 19.400000000000002 41.8" fill="none" stroke="#999" stroke-width="0.23" stroke-linecap="round" stroke-linejoin="round"/></clipPath></defs><g clip-path="url(#texture_1560)"><image href="../components/clothing_luxury_citywear_2.png" x="7.75" y="19" width="16.5" height="27" preserveAspectRatio="none"/></g></g></g><g transform="translate(64 96)"><g transform="translate(0 0)"><path d="M 10.9 31 L 21.1 31 L 21.1 44 L 18.0 44 L 16 35 L 14.0 44 L 10.9 44 Z" fill="url(#cloth)" stroke="#24344e" stroke-width="0.25" stroke-linecap="round" stroke-linejoin="round"/><path d="M 11.9 32 Q 11.9 34 13.9 35 M 20.1 32 Q 20.1 34 18.1 35" fill="none" stroke="#ddd" stroke-width="0.24" stroke-linecap="round" stroke-linejoin="round"/><path d="M 12.2 37 L 12.600000000000001 41.8 M 19.8 37 L 19.400000000000002 41.8" fill="none" stroke="#999" stroke-width="0.23" stroke-linecap="round" stroke-linejoin="round"/><defs><clipPath id="texture_1561"><path d="M 10.9 31 L 21.1 31 L 21.1 44 L 18.0 44 L 16 35 L 14.0 44 L 10.9 44 Z" fill="url(#cloth)" stroke="#24344e" stroke-width="0.25" stroke-linecap="round" stroke-linejoin="round"/><path d="M 11.9 32 Q 11.9 34 13.9 35 M 20.1 32 Q 20.1 34 18.1 35" fill="none" stroke="#ddd" stroke-width="0.24" stroke-linecap="round" stroke-linejoin="round"/><path d="M 12.2 37 L 12.600000000000001 41.8 M 19.8 37 L 19.400000000000002 41.8" fill="none" stroke="#999" stroke-width="0.23" stroke-linecap="round" stroke-linejoin="round"/></clipPath></defs><g clip-path="url(#texture_1561)"><image href="../components/clothing_luxury_citywear_2.png" x="7.75" y="19" width="16.5" height="27" preserveAspectRatio="none"/></g></g></g><g transform="translate(96 96)"><g transform="translate(0 -0.18)"><path d="M 10.9 31 L 21.1 31 L 21.1 44 L 18.0 44 L 16 35 L 14.0 44 L 10.9 44 Z" fill="url(#cloth)" stroke="#24344e" stroke-width="0.25" stroke-linecap="round" stroke-linejoin="round"/><path d="M 11.9 32 Q 11.9 34 13.9 35 M 20.1 32 Q 20.1 34 18.1 35" fill="none" stroke="#ddd" stroke-width="0.24" stroke-linecap="round" stroke-linejoin="round"/><path d="M 12.2 37 L 12.600000000000001 41.8 M 19.8 37 L 19.400000000000002 41.8" fill="none" stroke="#999" stroke-width="0.23" stroke-linecap="round" stroke-linejoin="round"/><defs><clipPath id="texture_1562"><path d="M 10.9 31 L 21.1 31 L 21.1 44 L 18.0 44 L 16 35 L 14.0 44 L 10.9 44 Z" fill="url(#cloth)" stroke="#24344e" stroke-width="0.25" stroke-linecap="round" stroke-linejoin="round"/><path d="M 11.9 32 Q 11.9 34 13.9 35 M 20.1 32 Q 20.1 34 18.1 35" fill="none" stroke="#ddd" stroke-width="0.24" stroke-linecap="round" stroke-linejoin="round"/><path d="M 12.2 37 L 12.600000000000001 41.8 M 19.8 37 L 19.400000000000002 41.8" fill="none" stroke="#999" stroke-width="0.23" stroke-linecap="round" stroke-linejoin="round"/></clipPath></defs><g clip-path="url(#texture_1562)"><image href="../components/clothing_luxury_citywear_2.png" x="7.75" y="19" width="16.5" height="27" preserveAspectRatio="none"/></g></g></g></svg>