<svg xmlns="http://www.w3.org/2000/svg" width="512" height="576" viewBox="0 0 128 144"><defs>
 <linearGradient id="skin" x1="0" y1="0" x2="1" y2=".7"><stop stop-color="#ffffff"/><stop offset=".48" stop-color="#f3f3f3"/><stop offset="1" stop-color="#b9b9b9"/></linearGradient>
 <linearGradient id="hair" x1="0" y1="0" x2=".9" y2="1"><stop stop-color="#ffffff"/><stop offset=".33" stop-color="#dbdbdb"/><stop offset=".76" stop-color="#909090"/><stop offset="1" stop-color="#666666"/></linearGradient>
 <linearGradient id="cloth" x1="0" y1="0" x2="1" y2=".7"><stop stop-color="#eeeeee"/><stop offset=".4" stop-color="#bbbbbb"/><stop offset="1" stop-color="#717171"/></linearGradient>
 <linearGradient id="navy" x1="0" y1="0" x2="1" y2=".7"><stop stop-color="#50647d"/><stop offset=".5" stop-color="#344157"/><stop offset="1" stop-color="#1d293d"/></linearGradient>
 <linearGradient id="white" x1="0" y1="0" x2="1" y2="1"><stop stop-color="#faf8f3"/><stop offset=".65" stop-color="#dedfe4"/><stop offset="1" stop-color="#a9b6c8"/></linearGradient>
 <linearGradient id="denim" x1="0" y1="0" x2="1" y2=".6"><stop stop-color="#657896"/><stop offset=".5" stop-color="#3b526e"/><stop offset="1" stop-color="#23364e"/></linearGradient>
 <radialGradient id="iris"><stop stop-color="#d8d8d8"/><stop offset=".65" stop-color="#fafafa"/><stop offset="1" stop-color="#707070"/></radialGradient>
 <linearGradient id="leather" x1="0" y1="0" x2="1" y2=".8"><stop stop-color="#bd9870"/><stop offset=".4" stop-color="#96714e"/><stop offset="1" stop-color="#594636"/></linearGradient>
 </defs><g transform="translate(0 0)"><defs><clipPath id="detail_553" transform="translate(0 0)"><rect x="13" y="19" width="6" height="9" rx="0.2" fill="white"/><rect x="19" y="21" width="3" height="3" rx="0.2" fill="white"/></clipPath></defs><g clip-path="url(#detail_553)"><g transform="translate(0 0)"><image href="../components/clothing_color_executive_0.png" x="8.55" y="19" width="14.9" height="27" preserveAspectRatio="none"/></g></g></g><g transform="translate(32 0)"><defs><clipPath id="detail_554" transform="translate(0 -0.18)"><rect x="13" y="19" width="6" height="9" rx="0.2" fill="white"/><rect x="19" y="21" width="3" height="3" rx="0.2" fill="white"/></clipPath></defs><g clip-path="url(#detail_554)"><g transform="translate(0 -0.18)"><image href="../components/clothing_color_executive_0.png" x="8.55" y="19" width="14.9" height="27" preserveAspectRatio="none"/></g></g></g><g transform="translate(64 0)"><defs><clipPath id="detail_555" transform="translate(0 0)"><rect x="13" y="19" width="6" height="9" rx="0.2" fill="white"/><rect x="19" y="21" width="3" height="3" rx="0.2" fill="white"/></clipPath></defs><g clip-path="url(#detail_555)"><g transform="translate(0 0)"><image href="../components/clothing_color_executive_0.png" x="8.55" y="19" width="14.9" height="27" preserveAspectRatio="none"/></g></g></g><g transform="translate(96 0)"><defs><clipPath id="detail_556" transform="translate(0 -0.18)"><rect x="13" y="19" width="6" height="9" rx="0.2" fill="white"/><rect x="19" y="21" width="3" height="3" rx="0.2" fill="white"/></clipPath></defs><g clip-path="url(#detail_556)"><g transform="translate(0 -0.18)"><image href="../components/clothing_color_executive_0.png" x="8.55" y="19" width="14.9" height="27" preserveAspectRatio="none"/></g></g></g><g transform="translate(0 48)"><defs><clipPath id="detail_557" transform="translate(0 0)"><rect x="18.3" y="19" width="3.7" height="10" rx="0.2" fill="white"/></clipPath></defs><g clip-path="url(#detail_557)"><g transform="translate(0 0)"><image href="../components/clothing_color_executive_1.png" x="10.5" y="19" width="12.7" height="27" preserveAspectRatio="none"/></g></g></g><g transform="translate(32 48)"><defs><clipPath id="detail_558" transform="translate(0 -0.18)"><rect x="18.3" y="19" width="3.7" height="10" rx="0.2" fill="white"/></clipPath></defs><g clip-path="url(#detail_558)"><g transform="translate(0 -0.18)"><image href="../components/clothing_color_executive_1.png" x="10.5" y="19" width="12.7" height="27" preserveAspectRatio="none"/></g></g></g><g transform="translate(64 48)"><defs><clipPath id="detail_559" transform="translate(0 0)"><rect x="18.3" y="19" width="3.7" height="10" rx="0.2" fill="white"/></clipPath></defs><g clip-path="url(#detail_559)"><g transform="translate(0 0)"><image href="../components/clothing_color_executive_1.png" x="10.5" y="19" width="12.7" height="27" preserveAspectRatio="none"/></g></g></g><g transform="translate(96 48)"><defs><clipPath id="detail_560" transform="translate(0 -0.18)"><rect x="18.3" y="19" width="3.7" height="10" rx="0.2" fill="white"/></clipPath></defs><g clip-path="url(#detail_560)"><g transform="translate(0 -0.18)"><image href="../components/clothing_color_executive_1.png" x="10.5" y="19" width="12.7" height="27" preserveAspectRatio="none"/></g></g></g><g transform="translate(0 96)"><defs><clipPath id="detail_561" transform="translate(0 0)"></clipPath></defs><g clip-path="url(#detail_561)"><g transform="translate(0 0)"><image href="../components/clothing_color_executive_2.png" x="8.55" y="19" width="14.9" height="27" preserveAspectRatio="none"/></g></g></g><g transform="translate(32 96)"><defs><clipPath id="detail_562" transform="translate(0 -0.18)"></clipPath></defs><g clip-path="url(#detail_562)"><g transform="translate(0 -0.18)"><image href="../components/clothing_color_executive_2.png" x="8.55" y="19" width="14.9" height="27" preserveAspectRatio="none"/></g></g></g><g transform="translate(64 96)"><defs><clipPath id="detail_563" transform="translate(0 0)"></clipPath></defs><g clip-path="url(#detail_563)"><g transform="translate(0 0)"><image href="../components/clothing_color_executive_2.png" x="8.55" y="19" width="14.9" height="27" preserveAspectRatio="none"/></g></g></g><g transform="translate(96 96)"><defs><clipPath id="detail_564" transform="translate(0 -0.18)"></clipPath></defs><g clip-path="url(#detail_564)"><g transform="translate(0 -0.18)"><image href="../components/clothing_color_executive_2.png" x="8.55" y="19" width="14.9" height="27" preserveAspectRatio="none"/></g></g></g></svg>