<svg xmlns="http://www.w3.org/2000/svg" width="64" height="16" viewBox="0 0 64 16"><path d="M5.7 8.0H10.3M8 5.7V10.3" fill="none" stroke="#f9dc95" stroke-opacity=".37" stroke-width="2" stroke-linecap="round"/><path d="M5.7 8.0H10.3M8 5.7V10.3" fill="none" stroke="#fff8de" stroke-opacity=".86" stroke-width=".9" stroke-linecap="round"/><circle cx="8" cy="8.0" r="1.15" fill="#fffff8"/><path d="M20 8.0H28M24 4.0V12.0" fill="none" stroke="#f9dc95" stroke-opacity=".37" stroke-width="2" stroke-linecap="round"/><path d="M20 8.0H28M24 4.0V12.0" fill="none" stroke="#fff8de" stroke-opacity=".86" stroke-width=".9" stroke-linecap="round"/><circle cx="24" cy="8.0" r="1.15" fill="#fffff8"/><path d="M34.5 8.0H45.5M40 2.5V13.5" fill="none" stroke="#f9dc95" stroke-opacity=".37" stroke-width="2" stroke-linecap="round"/><path d="M34.5 8.0H45.5M40 2.5V13.5" fill="none" stroke="#fff8de" stroke-opacity=".86" stroke-width=".9" stroke-linecap="round"/><circle cx="40" cy="8.0" r="1.15" fill="#fffff8"/><path d="M52.8 8.0H59.2M56 4.8V11.2" fill="none" stroke="#f9dc95" stroke-opacity=".37" stroke-width="2" stroke-linecap="round"/><path d="M52.8 8.0H59.2M56 4.8V11.2" fill="none" stroke="#fff8de" stroke-opacity=".86" stroke-width=".9" stroke-linecap="round"/><circle cx="56" cy="8.0" r="1.15" fill="#fffff8"/></svg>